<svg width="20" height="21" viewBox="0 0 20 21" fill="none" xmlns="http://www.w3.org/2000/svg">
<path d="M12.2084 9.24017C12.9388 9.24017 13.531 8.65043 13.531 7.92294C13.531 7.19546 12.9388 6.60571 12.2084 6.60571C11.4779 6.60571 10.8857 7.19546 10.8857 7.92294C10.8857 8.65043 11.4779 9.24017 12.2084 9.24017Z" fill="#FDB933"/>
<path fill-rule="evenodd" clip-rule="evenodd" d="M1.46447 1.61144C0 3.0759 0 5.43293 0 10.147C0 14.861 0 17.218 1.46447 18.6825C2.92893 20.147 5.28595 20.147 10 20.147C14.714 20.147 17.0711 20.147 18.5355 18.6825C20 17.218 20 14.861 20 10.147C20 5.43293 20 3.0759 18.5355 1.61144C17.0711 0.146973 14.714 0.146973 10 0.146973C5.28595 0.146973 2.92893 0.146973 1.46447 1.61144ZM12.2084 11.6991C14.3025 11.6991 16 10.0085 16 7.92303C16 5.83757 14.3025 4.14697 12.2084 4.14697C10.1144 4.14697 8.4169 5.83757 8.4169 7.92303C8.4169 8.889 8.85777 9.59153 8.85777 9.59153L4.27264 14.1579C4.0669 14.3628 3.77886 14.8956 4.27264 15.3873L4.8017 15.9142C5.00743 16.0899 5.52471 16.3357 5.94796 15.9142L6.56519 15.2995C7.18242 15.9142 7.88782 15.563 8.15235 15.2117C8.59323 14.597 8.06417 13.9823 8.06417 13.9823L8.24052 13.8067C9.08701 14.6497 9.82768 14.1579 10.0922 13.8067C10.5331 13.192 10.0922 12.5772 10.0922 12.5772C10.0403 12.4738 9.97309 12.4009 9.91535 12.3382C9.77698 12.1879 9.69297 12.0967 10.004 11.7869L10.5331 11.26C10.9564 11.6113 11.8264 11.6991 12.2084 11.6991Z" fill="#FDB933"/>
</svg>
