<svg width="24" height="25" viewBox="0 0 24 25" fill="none" xmlns="http://www.w3.org/2000/svg">
<path fill-rule="evenodd" clip-rule="evenodd" d="M3.17157 5.31855C2 6.49012 2 8.37574 2 12.147C2 15.9182 2 17.8038 3.17157 18.9754C4.34315 20.147 6.22876 20.147 10 20.147H14C17.7712 20.147 19.6569 20.147 20.8284 18.9754C22 17.8038 22 15.9182 22 12.147C22 8.37574 22 6.49012 20.8284 5.31855C19.6569 4.14697 17.7712 4.14697 14 4.14697H10C6.22876 4.14697 4.34315 4.14697 3.17157 5.31855ZM18.5762 7.66683C18.8413 7.98504 18.7983 8.45797 18.4801 8.72314L16.2837 10.5535C15.3973 11.2922 14.6789 11.8909 14.0448 12.2987C13.3843 12.7235 12.7411 12.9918 12 12.9918C11.2589 12.9918 10.6157 12.7235 9.95518 12.2987C9.32112 11.8909 8.60271 11.2922 7.71636 10.5536L5.51986 8.72314C5.20165 8.45797 5.15866 7.98504 5.42383 7.66683C5.68901 7.34863 6.16193 7.30563 6.48014 7.57081L8.63903 9.36989C9.57199 10.1474 10.2197 10.6854 10.7666 11.0371C11.2959 11.3776 11.6549 11.4918 12 11.4918C12.3451 11.4918 12.7041 11.3776 13.2334 11.0371C13.7803 10.6854 14.428 10.1474 15.361 9.36988L17.5199 7.57081C17.8381 7.30563 18.311 7.34863 18.5762 7.66683Z" fill="#FDB933"/>
</svg>
