<svg width="243" height="66" viewBox="0 0 243 66" fill="none" xmlns="http://www.w3.org/2000/svg">
<path opacity="0.8" d="M64.4606 58.3023C63.9042 58.3023 63.4013 58.206 62.9519 58.0134C62.5025 57.8208 62.1226 57.5426 61.8123 57.1788C61.5056 56.8115 61.2845 56.3674 61.1489 55.8467L61.9247 55.6434C62.0959 56.2354 62.4026 56.7027 62.8449 57.0451C63.2872 57.3875 63.815 57.5551 64.4285 57.548C64.8458 57.5409 65.2346 57.4624 65.5948 57.3126C65.9586 57.1592 66.26 56.9203 66.499 56.5957C66.7272 56.2961 66.8842 55.9858 66.9698 55.6648C67.0554 55.3402 67.1071 55.0067 67.1249 54.6643H64.3001V53.91H67.1303C67.091 53.3464 66.9644 52.8471 66.7504 52.4119C66.5364 51.9768 66.235 51.638 65.8463 51.3954C65.4575 51.1529 64.9849 51.0352 64.4285 51.0423C63.7687 51.0495 63.2158 51.2314 62.77 51.588C62.3277 51.9447 62.0352 52.4333 61.8926 53.0539L61.0954 52.9362C61.288 52.0909 61.6804 51.4364 62.2724 50.9728C62.8645 50.5091 63.5939 50.2773 64.4606 50.2773C65.206 50.2773 65.8373 50.4449 66.3545 50.7802C66.8753 51.1154 67.2729 51.5845 67.5476 52.1872C67.8222 52.79 67.9649 53.4909 67.9756 54.2898C67.9863 55.0388 67.8561 55.7165 67.585 56.3228C67.3175 56.9292 66.9198 57.4107 66.392 57.7673C65.8641 58.124 65.2203 58.3023 64.4606 58.3023ZM69.0416 58.1418L69.0469 52.3638H69.8387V55.1458L72.4175 52.3638H73.4661L70.7589 55.2528L73.8192 58.1418H72.6743L69.8387 55.3598V58.1418H69.0416ZM76.6636 58.3023C76.0893 58.3023 75.5989 58.1722 75.1923 57.9118C74.7857 57.6514 74.4736 57.2912 74.256 56.8311C74.0385 56.371 73.9297 55.8431 73.9297 55.2475C73.9297 54.6411 74.0403 54.1097 74.2614 53.6532C74.4825 53.1966 74.7964 52.8417 75.203 52.5885C75.6132 52.3317 76.1 52.2033 76.6636 52.2033C77.2414 52.2033 77.7336 52.3335 78.1402 52.5938C78.5503 52.8506 78.8624 53.2091 79.0764 53.6692C79.294 54.1257 79.4028 54.6518 79.4028 55.2475C79.4028 55.8538 79.294 56.387 79.0764 56.8471C78.8589 57.3037 78.545 57.6603 78.1348 57.9171C77.7247 58.1739 77.2342 58.3023 76.6636 58.3023ZM76.6636 57.548C77.3056 57.548 77.7835 57.3358 78.0974 56.9113C78.4112 56.4833 78.5682 55.9287 78.5682 55.2475C78.5682 54.5484 78.4095 53.992 78.092 53.5783C77.7782 53.1645 77.302 52.9576 76.6636 52.9576C76.232 52.9576 75.8753 53.0557 75.5936 53.2519C75.3154 53.4445 75.1067 53.7138 74.9676 54.0598C74.8321 54.4022 74.7643 54.7981 74.7643 55.2475C74.7643 55.943 74.9248 56.5012 75.2458 56.922C75.5668 57.3393 76.0394 57.548 76.6636 57.548ZM82.9798 58.3023C82.3984 58.3023 81.9062 58.1722 81.5032 57.9118C81.1001 57.6514 80.7934 57.293 80.583 56.8364C80.3761 56.3763 80.2691 55.8485 80.262 55.2528C80.2691 54.6465 80.3797 54.115 80.5937 53.6585C80.8077 53.1984 81.1162 52.8417 81.5192 52.5885C81.9223 52.3317 82.4109 52.2033 82.9852 52.2033C83.5701 52.2033 84.0783 52.346 84.5099 52.6313C84.9451 52.9166 85.2429 53.3072 85.4034 53.803L84.633 54.0491C84.4974 53.7031 84.2816 53.4356 83.9856 53.2465C83.6931 53.0539 83.3579 52.9576 82.9798 52.9576C82.5554 52.9576 82.204 53.0557 81.9258 53.2519C81.6476 53.4445 81.4408 53.7138 81.3052 54.0598C81.1697 54.4057 81.1001 54.8034 81.0966 55.2528C81.1037 55.9448 81.2642 56.5012 81.5781 56.922C81.892 57.3393 82.3592 57.548 82.9798 57.548C83.3721 57.548 83.7056 57.4588 83.9803 57.2805C84.2585 57.0986 84.4689 56.8346 84.6116 56.4887L85.4034 56.7241C85.1894 57.2377 84.8755 57.63 84.4618 57.9011C84.048 58.1686 83.554 58.3023 82.9798 58.3023ZM91.0981 52.3638V58.1418H90.333V53.6425L87.1658 58.1418H86.5024V52.3638H87.2674V56.8257L90.44 52.3638H91.0981ZM94.9965 58.3023C94.4151 58.3023 93.9229 58.1722 93.5199 57.9118C93.1169 57.6514 92.8101 57.293 92.5997 56.8364C92.3928 56.3763 92.2858 55.8485 92.2787 55.2528C92.2858 54.6465 92.3964 54.115 92.6104 53.6585C92.8244 53.1984 93.1329 52.8417 93.536 52.5885C93.939 52.3317 94.4276 52.2033 95.0019 52.2033C95.5868 52.2033 96.0951 52.346 96.5266 52.6313C96.9618 52.9166 97.2596 53.3072 97.4201 53.803L96.6497 54.0491C96.5141 53.7031 96.2984 53.4356 96.0023 53.2465C95.7099 53.0539 95.3746 52.9576 94.9965 52.9576C94.5721 52.9576 94.2208 53.0557 93.9426 53.2519C93.6644 53.4445 93.4575 53.7138 93.3219 54.0598C93.1864 54.4057 93.1169 54.8034 93.1133 55.2528C93.1204 55.9448 93.2809 56.5012 93.5948 56.922C93.9087 57.3393 94.3759 57.548 94.9965 57.548C95.3889 57.548 95.7223 57.4588 95.997 57.2805C96.2752 57.0986 96.4856 56.8346 96.6283 56.4887L97.4201 56.7241C97.2061 57.2377 96.8922 57.63 96.4785 57.9011C96.0647 58.1686 95.5708 58.3023 94.9965 58.3023ZM99.9457 58.1418V53.0914H97.8967V52.3638H102.781V53.0914H100.732V58.1418H99.9457ZM106.246 58.3023C105.683 58.3023 105.194 58.1775 104.78 57.9278C104.37 57.6782 104.051 57.3269 103.823 56.8739C103.594 56.4209 103.48 55.8895 103.48 55.2796C103.48 54.6483 103.593 54.1026 103.817 53.6425C104.042 53.1823 104.358 52.8275 104.764 52.5778C105.175 52.3281 105.658 52.2033 106.214 52.2033C106.785 52.2033 107.272 52.3353 107.675 52.5992C108.078 52.8596 108.383 53.2341 108.59 53.7227C108.797 54.2113 108.891 54.7945 108.873 55.4722H108.071V55.194C108.056 54.445 107.894 53.8796 107.584 53.498C107.277 53.1164 106.828 52.9255 106.236 52.9255C105.615 52.9255 105.139 53.1271 104.807 53.5301C104.479 53.9331 104.315 54.5074 104.315 55.2528C104.315 55.9804 104.479 56.5457 104.807 56.9488C105.139 57.3483 105.608 57.548 106.214 57.548C106.628 57.548 106.988 57.4535 107.295 57.2644C107.605 57.0718 107.85 56.7954 108.028 56.4352L108.761 56.7187C108.533 57.2216 108.196 57.6122 107.75 57.8904C107.307 58.165 106.806 58.3023 106.246 58.3023ZM104.037 55.4722V54.8141H108.451V55.4722H104.037ZM109.898 58.1418V52.3638H110.599L112.852 57.0932L115.109 52.3638H115.805V58.1418H115.045V54.0437L113.103 58.1418H112.606L110.663 54.0437V58.1418H109.898ZM118.955 58.3023C118.52 58.3023 118.154 58.2239 117.858 58.0669C117.566 57.91 117.346 57.7014 117.2 57.441C117.054 57.1806 116.981 56.8971 116.981 56.5903C116.981 56.2765 117.043 56.009 117.168 55.7878C117.297 55.5631 117.47 55.3794 117.687 55.2368C117.908 55.0941 118.163 54.9853 118.452 54.9104C118.745 54.8391 119.067 54.7767 119.421 54.7232C119.777 54.6661 120.125 54.6179 120.464 54.5787C120.806 54.5359 121.106 54.4949 121.363 54.4557L121.084 54.6269C121.095 54.0562 120.985 53.6335 120.753 53.3589C120.521 53.0843 120.118 52.9469 119.544 52.9469C119.148 52.9469 118.812 53.0361 118.538 53.2144C118.267 53.3928 118.076 53.6746 117.965 54.0598L117.2 53.8351C117.332 53.3179 117.598 52.9166 117.997 52.6313C118.397 52.346 118.916 52.2033 119.554 52.2033C120.082 52.2033 120.53 52.3032 120.897 52.5029C121.268 52.6991 121.53 52.9844 121.684 53.3589C121.755 53.5265 121.801 53.7138 121.823 53.9207C121.844 54.1275 121.855 54.338 121.855 54.552V58.1418H121.154V56.692L121.357 56.7776C121.161 57.2734 120.856 57.6514 120.442 57.9118C120.029 58.1722 119.533 58.3023 118.955 58.3023ZM119.046 57.6229C119.413 57.6229 119.734 57.5569 120.009 57.4249C120.284 57.293 120.505 57.1129 120.672 56.8846C120.84 56.6527 120.949 56.3924 120.999 56.1035C121.042 55.918 121.065 55.7147 121.068 55.4936C121.072 55.2689 121.074 55.1012 121.074 54.9907L121.373 55.1458C121.106 55.1815 120.815 55.2172 120.501 55.2528C120.191 55.2885 119.884 55.3295 119.581 55.3759C119.281 55.4222 119.01 55.4775 118.768 55.5417C118.604 55.5881 118.445 55.6541 118.292 55.7397C118.138 55.8217 118.012 55.9323 117.912 56.0714C117.815 56.2105 117.767 56.3835 117.767 56.5903C117.767 56.758 117.808 56.9203 117.89 57.0772C117.976 57.2341 118.112 57.3643 118.297 57.4677C118.486 57.5712 118.736 57.6229 119.046 57.6229ZM129.98 52.3638V58.1418H129.215V53.6425L126.048 58.1418H125.384V52.3638H126.149V56.8257L129.322 52.3638H129.98ZM131.476 58.1418V52.3638H132.263V54.873H135.521V52.3638H136.307V58.1418H135.521V55.6273H132.263V58.1418H131.476ZM140.2 58.3023C139.619 58.3023 139.127 58.1722 138.724 57.9118C138.321 57.6514 138.014 57.293 137.803 56.8364C137.597 56.3763 137.49 55.8485 137.482 55.2528C137.49 54.6465 137.6 54.115 137.814 53.6585C138.028 53.1984 138.337 52.8417 138.74 52.5885C139.143 52.3317 139.631 52.2033 140.206 52.2033C140.791 52.2033 141.299 52.346 141.73 52.6313C142.166 52.9166 142.463 53.3072 142.624 53.803L141.853 54.0491C141.718 53.7031 141.502 53.4356 141.206 53.2465C140.914 53.0539 140.578 52.9576 140.2 52.9576C139.776 52.9576 139.425 53.0557 139.146 53.2519C138.868 53.4445 138.661 53.7138 138.526 54.0598C138.39 54.4057 138.321 54.8034 138.317 55.2528C138.324 55.9448 138.485 56.5012 138.799 56.922C139.112 57.3393 139.58 57.548 140.2 57.548C140.593 57.548 140.926 57.4588 141.201 57.2805C141.479 57.0986 141.689 56.8346 141.832 56.4887L142.624 56.7241C142.41 57.2377 142.096 57.63 141.682 57.9011C141.268 58.1686 140.775 58.3023 140.2 58.3023ZM145.149 58.1418V53.0914H143.1V52.3638H147.985V53.0914H145.936V58.1418H145.149ZM151.6 58.3023C151.068 58.3023 150.619 58.1686 150.252 57.9011C149.884 57.63 149.606 57.2644 149.417 56.8043C149.228 56.3407 149.134 55.8217 149.134 55.2475C149.134 54.6625 149.228 54.1418 149.417 53.6853C149.61 53.2251 149.891 52.8631 150.262 52.5992C150.633 52.3353 151.09 52.2033 151.632 52.2033C152.16 52.2033 152.613 52.337 152.991 52.6045C153.369 52.872 153.658 53.2358 153.858 53.696C154.061 54.1561 154.163 54.6732 154.163 55.2475C154.163 55.8253 154.061 56.3442 153.858 56.8043C153.654 57.2644 153.362 57.63 152.98 57.9011C152.599 58.1686 152.138 58.3023 151.6 58.3023ZM149 60.7099V52.3638H149.706V56.7134H149.792V60.7099H149ZM151.52 57.5694C151.923 57.5694 152.258 57.4677 152.525 57.2644C152.793 57.0611 152.993 56.7847 153.125 56.4352C153.26 56.0821 153.328 55.6862 153.328 55.2475C153.328 54.8123 153.262 54.42 153.13 54.0705C152.998 53.7209 152.797 53.4445 152.525 53.2412C152.258 53.0379 151.917 52.9362 151.504 52.9362C151.101 52.9362 150.765 53.0343 150.498 53.2305C150.234 53.4267 150.036 53.6995 149.904 54.0491C149.772 54.395 149.706 54.7945 149.706 55.2475C149.706 55.6933 149.772 56.0928 149.904 56.4459C150.036 56.7954 150.236 57.0701 150.503 57.2698C150.771 57.4695 151.109 57.5694 151.52 57.5694ZM155.952 60.7099L157.07 57.6764L157.087 58.5752L154.556 52.3638H155.391L157.466 57.5587H157.124L159.039 52.3638H159.842L156.739 60.7099H155.952ZM160.766 58.1418V52.3638H161.467L163.719 57.0932L165.977 52.3638H166.672V58.1418H165.912V54.0437L163.97 58.1418H163.473L161.531 54.0437V58.1418H160.766ZM170.614 58.3023C170.051 58.3023 169.562 58.1775 169.148 57.9278C168.738 57.6782 168.419 57.3269 168.191 56.8739C167.962 56.4209 167.848 55.8895 167.848 55.2796C167.848 54.6483 167.961 54.1026 168.185 53.6425C168.41 53.1823 168.726 52.8275 169.132 52.5778C169.542 52.3281 170.026 52.2033 170.582 52.2033C171.153 52.2033 171.64 52.3353 172.043 52.5992C172.446 52.8596 172.751 53.2341 172.957 53.7227C173.164 54.2113 173.259 54.7945 173.241 55.4722H172.439V55.194C172.424 54.445 172.262 53.8796 171.952 53.498C171.645 53.1164 171.196 52.9255 170.603 52.9255C169.983 52.9255 169.507 53.1271 169.175 53.5301C168.847 53.9331 168.683 54.5074 168.683 55.2528C168.683 55.9804 168.847 56.5457 169.175 56.9488C169.507 57.3483 169.976 57.548 170.582 57.548C170.996 57.548 171.356 57.4535 171.663 57.2644C171.973 57.0718 172.217 56.7954 172.396 56.4352L173.129 56.7187C172.9 57.2216 172.563 57.6122 172.118 57.8904C171.675 58.165 171.174 58.3023 170.614 58.3023ZM168.405 55.4722V54.8141H172.818V55.4722H168.405ZM174.423 58.1418V52.3638H175.209V54.873H178.468V52.3638H179.254V58.1418H178.468V55.6273H175.209V58.1418H174.423ZM182.318 58.1418V53.0914H180.269V52.3638H185.153V53.0914H183.104V58.1418H182.318ZM188.482 58.3023C187.907 58.3023 187.417 58.1722 187.01 57.9118C186.604 57.6514 186.292 57.2912 186.074 56.8311C185.857 56.371 185.748 55.8431 185.748 55.2475C185.748 54.6411 185.858 54.1097 186.08 53.6532C186.301 53.1966 186.615 52.8417 187.021 52.5885C187.431 52.3317 187.918 52.2033 188.482 52.2033C189.06 52.2033 189.552 52.3335 189.958 52.5938C190.369 52.8506 190.681 53.2091 190.895 53.6692C191.112 54.1257 191.221 54.6518 191.221 55.2475C191.221 55.8538 191.112 56.387 190.895 56.8471C190.677 57.3037 190.363 57.6603 189.953 57.9171C189.543 58.1739 189.052 58.3023 188.482 58.3023ZM188.482 57.548C189.124 57.548 189.602 57.3358 189.916 56.9113C190.229 56.4833 190.386 55.9287 190.386 55.2475C190.386 54.5484 190.228 53.992 189.91 53.5783C189.596 53.1645 189.12 52.9576 188.482 52.9576C188.05 52.9576 187.693 53.0557 187.412 53.2519C187.134 53.4445 186.925 53.7138 186.786 54.0598C186.65 54.4022 186.582 54.7981 186.582 55.2475C186.582 55.943 186.743 56.5012 187.064 56.922C187.385 57.3393 187.858 57.548 188.482 57.548ZM192.396 58.1418V52.3638H194.777C194.898 52.3638 195.044 52.3709 195.215 52.3852C195.39 52.3995 195.552 52.4262 195.702 52.4654C196.027 52.551 196.287 52.7258 196.483 52.9897C196.683 53.2537 196.783 53.5711 196.783 53.9421C196.783 54.1489 196.751 54.3344 196.687 54.4985C196.626 54.659 196.539 54.7981 196.424 54.9158C196.371 54.9764 196.312 55.0299 196.248 55.0763C196.184 55.1191 196.121 55.1547 196.061 55.1833C196.175 55.2047 196.298 55.2546 196.43 55.3331C196.637 55.4543 196.794 55.6184 196.901 55.8253C197.008 56.0286 197.061 56.2765 197.061 56.5689C197.061 56.9648 196.967 57.2876 196.777 57.5373C196.588 57.787 196.335 57.9582 196.018 58.0509C195.875 58.0901 195.72 58.1151 195.552 58.1258C195.388 58.1365 195.233 58.1418 195.087 58.1418H192.396ZM193.188 57.4731H195.049C195.124 57.4731 195.219 57.4677 195.333 57.457C195.447 57.4428 195.549 57.4249 195.638 57.4035C195.848 57.35 196.002 57.243 196.098 57.0825C196.198 56.9185 196.248 56.7401 196.248 56.5475C196.248 56.2943 196.173 56.0874 196.023 55.9269C195.877 55.7629 195.681 55.663 195.435 55.6273C195.353 55.6095 195.267 55.5988 195.178 55.5952C195.089 55.5917 195.008 55.5899 194.937 55.5899H193.188V57.4731ZM193.188 54.9158H194.803C194.896 54.9158 194.999 54.9104 195.114 54.8997C195.231 54.8854 195.333 54.8623 195.419 54.8302C195.604 54.766 195.74 54.6554 195.825 54.4985C195.914 54.3415 195.959 54.1703 195.959 53.9849C195.959 53.7816 195.911 53.6032 195.814 53.4499C195.722 53.2965 195.581 53.1895 195.392 53.1288C195.263 53.0825 195.124 53.0557 194.975 53.0486C194.828 53.0415 194.736 53.0379 194.696 53.0379H193.188V54.9158ZM199.841 59.4259V57.4677C200.17 57.4677 200.405 57.3625 200.548 57.1521C200.69 56.9381 200.806 56.5975 200.895 56.1302C200.956 55.8271 201.006 55.5007 201.045 55.1512C201.084 54.8016 201.118 54.4022 201.147 53.9528C201.175 53.4998 201.202 52.9701 201.227 52.3638H205.047V57.4677H205.603V59.4259H204.844V58.1418H200.596V59.4259H199.841ZM201.174 57.4677H204.266V53.0379H201.955C201.944 53.309 201.928 53.5961 201.907 53.8993C201.889 54.2024 201.866 54.5056 201.837 54.8088C201.812 55.1119 201.782 55.3973 201.746 55.6648C201.714 55.9287 201.675 56.1605 201.628 56.3603C201.575 56.6171 201.516 56.8364 201.452 57.0183C201.391 57.2002 201.298 57.35 201.174 57.4677ZM206.14 58.1418V57.4517C206.354 57.4909 206.516 57.482 206.627 57.4249C206.741 57.3643 206.825 57.2644 206.878 57.1253C206.932 56.9827 206.976 56.8061 207.012 56.5957C207.069 56.2461 207.121 55.8609 207.167 55.4401C207.213 55.0192 207.254 54.5555 207.29 54.0491C207.329 53.539 207.369 52.9773 207.408 52.3638H211.335V58.1418H210.554V53.1181H208.135C208.11 53.4962 208.082 53.8725 208.05 54.247C208.018 54.6215 207.984 54.9817 207.948 55.3277C207.916 55.6701 207.88 55.9858 207.841 56.2747C207.802 56.5636 207.761 56.8132 207.718 57.0237C207.654 57.3411 207.568 57.5944 207.461 57.7834C207.358 57.9724 207.203 58.0973 206.996 58.1579C206.789 58.2185 206.504 58.2132 206.14 58.1418ZM216.452 58.1418V55.9644H215.103C214.946 55.9644 214.784 55.959 214.616 55.9483C214.452 55.9341 214.299 55.9144 214.156 55.8895C213.75 55.811 213.404 55.6327 213.118 55.3545C212.837 55.0727 212.696 54.6839 212.696 54.1882C212.696 53.7031 212.828 53.3143 213.092 53.0218C213.356 52.7258 213.675 52.5332 214.049 52.444C214.221 52.4048 214.394 52.3816 214.568 52.3745C214.747 52.3674 214.9 52.3638 215.028 52.3638H217.238L217.243 58.1418H216.452ZM212.509 58.1418L214.119 55.7183H214.991L213.37 58.1418H212.509ZM215.061 55.2903H216.452V53.0379H215.061C214.975 53.0379 214.855 53.0415 214.702 53.0486C214.549 53.0557 214.404 53.0789 214.269 53.1181C214.151 53.1538 214.033 53.2162 213.916 53.3054C213.801 53.391 213.705 53.5069 213.627 53.6532C213.548 53.7958 213.509 53.9706 213.509 54.1775C213.509 54.4664 213.587 54.6982 213.744 54.873C213.905 55.0442 214.105 55.1619 214.344 55.2261C214.472 55.2546 214.6 55.2724 214.729 55.2796C214.857 55.2867 214.968 55.2903 215.061 55.2903ZM220.244 58.1418L223.657 54.1561L220.538 50.4378H221.528L224.508 54.0384V50.4378H225.294V54.0384L228.274 50.4378H229.264L226.145 54.1561L229.558 58.1418H228.553L225.294 54.3273V58.1418H224.508V54.3273L221.255 58.1418H220.244ZM230.416 58.1418V50.4378H231.202V54.0758L234.717 50.4378H235.723L232.133 54.1561L236.017 58.1418H234.99L231.202 54.2898V58.1418H230.416ZM236.127 58.1418L238.797 54.2417L236.196 50.4378H237.149L239.262 53.5836L241.375 50.4378H242.333L239.733 54.2417L242.397 58.1418H241.445L239.262 54.9051L237.085 58.1418H236.127Z" fill="white"/>
<path d="M62.1628 39V10.9242H79.3631V39H73.2504V16.1884H68.2754V39H62.1628ZM82.1784 39V10.9242H91.492C93.9345 10.9242 95.7857 11.7212 97.0455 13.3152C98.3053 14.9093 98.9352 17.3196 98.9352 20.5463C98.9352 23.7601 98.286 26.164 96.9876 27.7581C95.6892 29.3521 93.8124 30.1492 91.357 30.1492H88.2911V39H82.1784ZM88.2911 25.5984H90.3736C91.2863 25.5984 91.9291 25.2642 92.3019 24.5957C92.6747 23.9272 92.8611 22.616 92.8611 20.662C92.8611 18.8366 92.6811 17.5639 92.3212 16.844C91.9612 16.1112 91.3056 15.7513 90.3543 15.7642H88.2911V25.5984ZM100.324 28.1437V21.6069C100.324 17.8017 101.166 15.0057 102.85 13.2188C104.534 11.4319 106.777 10.5385 109.579 10.5385C112.407 10.5385 114.664 11.4319 116.348 13.2188C118.032 15.0057 118.874 17.8017 118.874 21.6069V28.1437C118.874 31.9489 118.025 34.7771 116.328 36.6282C114.631 38.4665 112.382 39.3857 109.579 39.3857C106.803 39.3857 104.566 38.4665 102.869 36.6282C101.172 34.7771 100.324 31.9489 100.324 28.1437ZM106.706 29.8792C106.706 31.6661 106.957 32.9195 107.458 33.6394C107.972 34.3593 108.686 34.7192 109.599 34.7192C110.498 34.7192 111.206 34.3593 111.72 33.6394C112.247 32.9195 112.51 31.6661 112.51 29.8792V20.0642C112.51 18.3416 112.253 17.1204 111.739 16.4005C111.225 15.6677 110.511 15.3014 109.599 15.3014C108.686 15.3014 107.972 15.6677 107.458 16.4005C106.957 17.1204 106.706 18.3416 106.706 20.0642V29.8792ZM136.46 10.5385V14.0287H136.98C140.104 14.0287 142.45 14.9286 144.019 16.7283C145.587 18.5152 146.371 21.1955 146.371 24.7692C146.371 28.3559 145.587 31.0426 144.019 32.8295C142.463 34.6035 140.098 35.4969 136.922 35.5098H136.46V39.3857H130.424V35.5098H129.942C126.78 35.5098 124.414 34.6164 122.846 32.8295C121.278 31.0426 120.493 28.3559 120.493 24.7692C120.493 21.1826 121.284 18.4959 122.865 16.709C124.459 14.9221 126.805 14.0287 129.903 14.0287H130.424V10.5385H136.46ZM136.768 18.3866H136.44V31.2869H136.768C137.925 31.2869 138.748 30.7984 139.236 29.8214C139.725 28.8315 139.969 27.1603 139.969 24.8078C139.969 22.2753 139.725 20.572 139.236 19.6979C138.748 18.8237 137.925 18.3866 136.768 18.3866ZM130.116 18.3866C128.971 18.3866 128.149 18.8173 127.647 19.6786C127.159 20.5399 126.915 22.2368 126.915 24.7692C126.915 27.3274 127.159 29.0565 127.647 29.9563C128.149 30.8433 128.971 31.2869 130.116 31.2869H130.443V18.3866H130.116ZM166.04 39H160.023L160.004 24.5379C160.004 24.0622 160.01 23.5737 160.023 23.0724C160.049 22.5581 160.068 22.1146 160.081 21.7418H159.965C159.888 22.1018 159.792 22.5196 159.676 22.9952C159.561 23.458 159.406 23.9272 159.213 24.4029L155.183 39H148.396V10.9242H154.412V25.3092C154.412 25.7077 154.406 26.1833 154.393 26.7361C154.38 27.2889 154.367 27.7324 154.354 28.0666H154.47C154.573 27.6038 154.682 27.1539 154.798 26.7168C154.913 26.2797 155.061 25.8491 155.241 25.4249L159.252 10.9242H166.04V39ZM186.961 39V10.9242H192.978V39H186.961ZM198.011 39L193.479 25.7141L198.84 22.3782L204.721 39H198.011ZM189.97 21.8575H193.923L197.741 10.9242H203.969L198.223 27.2567H189.97V21.8575ZM175.276 39L181.177 22.3975L186.499 25.7141L181.929 39H175.276ZM189.97 21.8575V27.2567H181.639L175.912 10.9242H182.199L186.017 21.8575H189.97ZM217.467 39L212.473 25.5598L217.853 22.2046L224.274 39H217.467ZM208.828 21.8383H212.897L217.216 10.9242H223.522L216.618 27.2567H208.828V21.8383ZM205.743 39V10.9242H211.856V39H205.743ZM223.618 39L231.081 21.9925H232.18L236.692 10.9242H242.342L235.342 27.141H234.262L229.422 39H223.618ZM224.004 10.9242H230.541L235.188 22.1661L235.516 22.1468L242.515 39H235.959L231.1 26.7554H230.791L224.004 10.9242Z" fill="white"/>
<path d="M24.0524 0C24.0724 0.121746 24.0124 0.412585 24.0524 0.439639C24.1857 0.541094 26.7714 0.392293 27.3245 0.439639C35.628 1.12953 42.3187 10.0508 43.7449 17.8832C45.9707 19.2427 49.6226 20.1152 51.5485 21.6979C51.6485 22.5163 51.5818 22.6786 50.7688 22.7801C49.4893 22.9424 42.3054 22.5231 41.9789 23.0574C41.539 23.9096 42.4787 25.4247 42.392 25.9861C42.3854 26.0469 42.0655 26.4798 41.8722 26.9397C41.8123 27.0885 41.3125 26.9533 41.519 27.9949C41.559 28.1978 41.7056 28.279 41.7256 28.3398C42.5187 30.5448 44.9177 32.8174 45.5375 34.5489C45.6908 34.975 45.7108 36.0504 45.5575 36.4359C45.111 37.5452 42.8719 37.065 42.6253 37.7819C42.2854 38.7694 43.1051 39.7028 43.0385 40.4062C42.9785 40.9744 42.2921 41.1638 42.1921 41.5628C42.0922 41.9822 42.532 42.5706 42.3387 43.2402C42.2054 43.7069 41.4524 43.991 41.3258 44.4441C41.1392 45.1138 41.659 46.0877 41.7256 46.8317C42.0788 50.8494 38.7801 50.8832 35.7279 50.7006C34.595 50.6329 31.7428 49.6928 31.0697 50.8494C30.2101 54.4003 28.6773 58.3841 29.0905 62.0838C29.2304 63.3622 29.9768 64.6473 29.8302 65.9865C23.4127 62.395 17.3817 57.6671 10.2511 55.5163C8.64501 55.0293 7.01897 54.8399 5.40626 54.4544C5.15969 54.3935 4.99308 54.3732 4.84647 54.1297C6.87236 50.1392 9.81123 45.5263 9.43804 40.8391C9.24478 38.3974 7.66539 37.1191 6.50584 35.1847C5.15302 32.9324 4.61323 31.539 3.98014 29.0027C3.67359 28.2925 4.57325 28.4345 4.41997 28.0084C4.34667 27.8055 4.03345 27.9746 3.98014 27.7514C3.90684 27.4538 4.06011 26.6421 3.98014 26.561C3.88684 26.4663 2.3541 26.6557 1.94759 26.561C1.79431 26.5204 1.8343 26.216 1.62771 26.1349C1.43445 26.0537 1.00795 26.1957 0.934645 26.1213C0.86134 26.0469 0.994622 25.6141 0.921317 25.4179C0.834684 25.2082 0.534799 25.2488 0.494815 25.0933C0.268235 24.1396 0.534799 22.7057 1.42779 22.2119C1.94093 21.9279 2.37409 22.5569 2.38742 21.1838C2.38742 21.0215 2.24081 20.8795 2.24081 20.8186C2.24747 19.2089 2.54069 17.7479 2.92055 16.3208C4.49994 10.3349 7.86531 5.44476 13.3832 2.57696C15.2291 1.61652 18.1614 0.547858 19.9007 0.446403C20.4205 0.412585 22.8329 0.541095 22.9595 0.446403C22.9928 0.419348 22.9395 0.12851 22.9595 0.00676368C23.3194 0 23.6859 0.00676368 24.0524 0.00676368V0ZM17.0684 15.9488C18.3813 15.5565 18.9477 14.6975 18.4946 13.2771C18.2746 12.5737 17.6815 12.5534 17.4083 12.1679C16.4687 10.8557 17.1151 9.0701 14.3428 9.06333C12.3503 9.06333 12.6368 10.2605 11.8305 10.734C11.3506 11.018 10.5643 10.8489 9.88454 11.4171C9.25145 11.9447 9.35807 12.6075 9.17148 12.7969C8.84494 13.1283 7.78534 12.7834 7.67872 14.0617C7.59209 15.0492 7.9053 15.6038 8.78496 15.9488C8.92491 16.0029 8.97155 16.1381 9.31142 16.1855C10.7309 16.3681 15.8356 16.3208 17.0818 15.9488H17.0684ZM22.3064 11.3021C22.6196 12.7563 21.6134 14.0008 20.1206 13.737C20.1539 13.9399 20.0673 14.2578 20.1206 14.3999C20.2739 14.8057 20.9536 14.4743 21.0003 14.7313C21.1935 15.8879 20.6204 15.4482 19.6874 15.5091C19.4475 16.5575 20.0406 16.3072 20.1273 16.3952C20.1539 16.4222 20.0273 16.7807 20.2739 16.8416C20.6071 16.9295 21.0736 16.7875 21.4401 16.8416V17.9508C20.7803 17.3015 19.6741 18.1605 20.1339 18.6137C20.3272 18.803 23.0328 18.1875 22.3131 20.8321H22.9662L23.0928 19.4997H24.279C23.9258 21.4612 25.5119 21.4206 25.152 19.4997H26.4648V20.8321H27.1179C26.858 19.1886 27.7044 18.3363 29.3037 18.6137V17.9508H27.9909C27.8443 16.314 28.1109 17.0783 28.9372 16.8145C29.4037 16.6657 29.3104 16.1517 29.2971 15.7391H27.9842V14.5352L29.2971 14.4066C29.2971 14.1834 29.3104 13.9602 29.2971 13.7438C29.2438 12.9119 28.9305 13.4597 28.1508 13.2906C27.0846 13.0674 28.2775 10.6122 26.2449 11.0857C26.5981 13.0268 25.0121 13.0268 25.3719 11.0857H24.0591C24.0258 12.1205 24.4256 12.6143 23.1861 12.4181C22.9862 12.222 23.6992 10.3011 22.3131 11.3089L22.3064 11.3021ZM10.9575 27.6905C11.324 26.8248 11.324 25.1879 10.9575 24.3695C11.0041 23.5038 10.8575 23.2738 11.3906 22.4892C11.5039 22.3201 12.6102 21.1906 12.7035 21.15C13.09 20.9945 13.4565 21.4071 14.003 21.1636C15.7356 20.3925 14.5827 17.802 12.6968 18.7219C11.7172 19.2021 12.3702 20.3316 12.1637 20.8186C12.0837 21.0148 10.8842 22.1781 10.6576 22.1375C9.64463 21.5897 9.64463 20.8051 9.25811 20.0002C8.43176 18.2958 6.44586 19.9055 7.44547 21.1771C7.80534 21.6303 8.49174 21.3868 8.99155 21.6032C11.324 22.6178 9.80457 26.8383 10.4043 28.8065C10.5043 29.1244 12.4369 31.2279 12.5968 31.2279C12.7368 31.2279 12.93 30.8627 12.93 30.6801C12.93 30.0105 11.1241 29.2867 10.9575 27.6905ZM33.1822 25.2218C32.2759 25.817 29.6169 24.7957 30.5832 23.1386C31.3763 21.7723 32.3559 22.2863 32.9823 21.8129C33.802 21.1906 33.4088 19.8987 32.4359 19.7229C30.7032 19.405 31.3163 20.9539 30.8232 21.8399C30.0568 23.213 28.3974 22.4284 28.0642 23.7067C27.6777 25.1879 29.5703 24.8971 30.1567 25.1541C30.6232 25.357 30.9498 26.2431 31.0764 26.3175C31.4362 26.5339 32.4759 26.2431 33.0556 26.4122C33.4288 26.5204 33.6954 27.0953 34.2418 27.2171C36.4077 27.677 37.0474 24.2072 34.6284 24.1328C33.0556 24.0855 33.4222 25.0662 33.1756 25.2285L33.1822 25.2218ZM22.5197 22.1511C22.433 22.1984 22.3664 22.3472 22.2998 22.3743C20.1406 23.2468 17.8348 24.985 15.8556 26.3648C15.6223 26.5272 15.1825 26.561 15.1292 26.6151C14.9359 26.8383 15.2025 30.1593 15.0959 30.795C15.529 30.768 15.9755 30.8289 16.4087 30.795V31.0182C16.3087 31.0318 16.2421 31.2144 16.1888 31.2414C14.876 31.9313 13.3965 33.4599 12.0437 34.231V45.5263C12.0437 45.9592 14.3495 45.9457 14.736 45.8578C14.9359 45.8104 14.8026 45.2423 15.4291 45.4114C15.7756 45.506 14.9892 45.6954 16.1888 45.6346C16.2621 45.6346 16.3354 45.6346 16.4087 45.6346C16.5553 46.2568 17.435 46.0674 17.9348 46.0742C17.9481 45.9254 17.9281 45.7766 17.9348 45.6346C17.9548 45.2693 17.9281 44.8973 17.9348 44.5253C19.9207 44.2751 18.8544 44.9041 19.4609 45.6346C19.6941 45.9119 20.1006 45.9998 20.4405 46.081C20.6471 46.0877 20.5338 45.8104 20.5538 45.6346C20.5871 45.3572 20.5471 45.0394 20.5538 44.7485L20.7737 43.8625H20.9936C21.1602 45.8307 21.4734 44.5118 21.5534 44.5118C21.6267 44.5118 22.2664 44.7282 22.2931 44.762C22.6596 45.3031 21.0402 45.9119 22.2998 46.081C24.299 46.3447 26.7914 45.8916 28.8439 46.081C28.8572 45.9322 28.8306 45.7834 28.8439 45.6413C28.8439 45.5669 28.8439 45.4925 28.8439 45.4181C29.5037 45.5399 29.2638 45.0799 29.2771 44.6538C29.377 41.5358 29.397 38.0051 29.2771 34.8871C29.2638 34.461 29.5037 34.001 28.8439 34.1228V33.6831C29.2904 33.5005 29.7102 33.5005 30.1501 33.6831C30.1501 33.7575 30.1501 33.8319 30.1501 33.9063C30.1567 34.1295 30.1367 34.3527 30.1501 34.5692C30.6299 34.4948 31.323 34.6842 31.7561 34.5692C31.996 34.5083 31.8694 34.1498 31.9027 34.1228C31.9361 34.0957 32.2893 34.2242 32.3426 33.974C32.4092 33.6696 32.2759 33.2841 32.3426 32.9459C32.3559 32.885 33.069 32.371 32.989 31.9043C33.1156 31.7961 33.1956 31.4376 33.4088 31.3564C33.6621 31.255 34.0352 31.5661 34.5084 31.3564C35.7079 30.8289 35.2148 28.8133 33.5821 29.28C32.7891 29.5099 33.1356 30.5042 32.7824 31.14C32.7224 31.255 31.7894 32.1613 31.6695 32.2222C31.5829 32.2628 30.23 32.77 30.1501 32.7836C29.9035 32.8377 29.5503 32.7497 29.2771 32.7836C29.0971 32.6009 29.4703 28.3466 29.2771 27.6093C29.2104 27.3591 28.8572 27.4876 28.8372 27.4673C28.7906 27.4064 28.8106 27.1359 28.6107 26.933C26.858 25.1744 24.3523 23.7811 22.6196 21.9346C22.5663 21.9279 22.553 22.1308 22.513 22.1511H22.5197ZM7.68538 26.3581C7.35884 27.3523 7.27221 29.4558 7.68538 30.3419C7.96528 30.9506 9.42471 32.6348 9.97783 33C10.2577 33.1826 10.451 33.2435 10.5243 32.885C10.6909 32.0734 8.70499 31.0182 8.43843 30.1322C8.12521 29.0906 8.40511 27.1156 8.33846 25.9117C8.21185 23.5579 7.37217 24.728 5.87275 24.356C5.79278 24.3357 4.76651 23.5106 4.68654 23.4835C4.51993 23.4294 4.35333 23.4835 4.19339 23.4835C3.40703 23.4835 2.51404 23.8961 2.75395 24.8159C3.34039 27.0209 7.16558 23.4632 7.68538 26.3581Z" fill="#CBCBCB"/>
<path d="M51.5419 21.7047C51.5885 21.7452 51.9217 21.5829 51.9883 21.8399C52.1216 22.381 51.7618 23.2535 51.2153 23.2535H42.1588C42.1721 24.1396 42.6986 25.1271 42.592 25.9996C42.492 26.8045 41.4924 27.3794 41.719 28.3466C41.699 28.2857 41.5524 28.2046 41.5124 28.0016C41.3058 26.96 41.8056 27.0885 41.8656 26.9465C42.0588 26.4866 42.372 26.0469 42.3854 25.9928C42.472 25.4314 41.5324 23.9231 41.9722 23.0642C42.2987 22.5298 49.4826 22.9492 50.7622 22.7868C51.5752 22.6854 51.6418 22.5231 51.5419 21.7047Z" fill="#878787"/>
<path d="M2.22748 20.8254C2.22748 20.8863 2.37409 21.0283 2.37409 21.1906C2.36742 22.5637 1.92759 21.9414 1.41446 22.2187C0.521468 22.7057 0.254904 24.1464 0.481484 25.1C0.521468 25.2556 0.821353 25.215 0.907986 25.4247C0.987956 25.6208 0.848009 26.0537 0.921315 26.1281C0.99462 26.2025 1.42112 26.0672 1.61438 26.1416C1.82097 26.2296 1.78098 26.5339 1.93426 26.5678C2.34077 26.6692 3.87351 26.4731 3.96681 26.5678C4.04011 26.6489 3.88684 27.4538 3.96681 27.7582C4.02012 27.9746 4.33334 27.8123 4.40664 28.0152C4.55991 28.4413 3.66692 28.2993 3.96681 29.0094C3.84019 28.5022 3.60695 26.8789 3.52698 26.7977C3.34705 26.6083 1.35448 27.2847 0.468155 26.0267C-0.291552 24.9445 -0.138278 22.9018 1.04793 22.1714C1.89427 21.6506 1.92093 22.3337 2.22081 20.8119L2.22748 20.8254Z" fill="white"/>
<path d="M27.3245 0.446414C26.7714 0.399068 24.179 0.547869 24.0524 0.446414C24.0191 0.419359 24.0724 0.128521 24.0524 0.0067749C25.152 0.0270659 26.3182 -0.101444 27.3245 0.446414Z" fill="#C5C5C5"/>
<path d="M22.9595 0C22.9395 0.121746 22.9995 0.412585 22.9595 0.439639C22.8396 0.534331 20.4205 0.405821 19.9007 0.439639C20.827 -0.00676372 21.9666 0.0338184 22.9595 0Z" fill="#C5C5C5"/>
<path d="M16.1954 45.6278C14.9959 45.6887 15.7756 45.4993 15.4357 45.4046C14.8093 45.2287 14.9426 45.8036 14.7427 45.851C14.3561 45.9389 12.0504 45.9592 12.0504 45.5196V34.2242C13.4032 33.4532 14.8893 31.9246 16.1954 31.2347V45.6278Z" fill="white"/>
<path d="M22.3064 22.3743C22.2864 24.7348 22.3264 27.1021 22.3064 29.4626C21.1869 29.6046 21.4201 29.3476 21.4334 28.3533H20.5604C20.3072 28.9824 20.9536 28.9959 20.9936 29.165C21.3201 30.768 20.2406 30.7071 19.041 30.6801C18.6745 30.6733 18.2813 30.2472 18.3813 31.0115C17.3483 30.9506 17.5016 30.5583 17.1817 30.538C16.7619 30.511 16.5087 30.7815 16.422 30.7883C15.9889 30.8221 15.5424 30.768 15.1092 30.7883C15.2225 30.1525 14.9493 26.8315 15.1425 26.6083C15.1892 26.5542 15.629 26.5204 15.8689 26.3581C17.8481 24.9783 20.1473 23.24 22.3131 22.3675L22.3064 22.3743Z" fill="white"/>
<path d="M22.7396 45.6278C22.633 45.6548 22.433 45.9727 22.3064 46.0674C21.0469 45.9051 22.6596 45.2896 22.2998 44.7485C22.2798 44.7147 21.6334 44.4982 21.56 44.4982C21.4734 44.4982 21.1602 45.8239 21.0003 43.8489C20.9736 43.5581 21.0069 43.2537 21.0003 42.9629H22.3131C22.1465 41.3396 22.533 39.3173 22.3264 37.7413C22.2731 37.3287 21.9199 37.4505 21.8799 37.2746C21.6334 36.2736 22.2198 35.8678 22.3198 35.1103C22.533 33.5749 22.2931 31.1197 22.3064 29.4491C22.3264 27.0885 22.2864 24.7212 22.3064 22.3607C22.3731 22.3337 22.4397 22.1849 22.5263 22.1375L22.7463 45.6143L22.7396 45.6278Z" fill="white"/>
<path d="M28.8506 34.1092C29.5103 33.9875 29.2704 34.4474 29.2837 34.8735C29.4037 37.9916 29.3837 41.5155 29.2837 44.6403C29.2704 45.0664 29.5037 45.5263 28.8506 45.4046C28.9372 41.6507 28.8506 37.8631 28.8506 34.1092Z" fill="white"/>
<path d="M17.9414 44.5185C17.9614 43.7069 17.9281 42.8885 17.9414 42.0836C20.3872 41.7251 19.2276 43.9842 19.4675 45.6278C18.8611 44.9041 19.9273 44.2683 17.9414 44.5185Z" fill="#C5C5C5"/>
<path d="M28.8506 27.4673C28.8506 27.4673 29.2304 27.3659 29.2904 27.6093C29.477 28.3466 29.1038 32.6009 29.2904 32.7836C29.5636 32.7497 29.9168 32.8377 30.1634 32.7836C30.1634 33.0812 30.1634 33.372 30.1634 33.6696C29.7169 33.487 29.2971 33.487 28.8572 33.6696V27.4673H28.8506Z" fill="white"/>
<path d="M16.4153 45.6278C16.342 45.6278 16.2687 45.6278 16.1954 45.6278V31.2347C16.2487 31.2076 16.3154 31.025 16.4153 31.0115V45.6278Z" fill="white"/>
<path d="M22.3064 11.3021C23.6926 10.2876 22.9795 12.2085 23.1794 12.4114C24.4189 12.6075 24.0124 12.1205 24.0524 11.0789H25.3652C25.0054 13.0201 26.5914 13.0201 26.2382 11.0789C28.2708 10.6055 27.0779 13.0607 28.1442 13.2839C28.9305 13.453 29.2438 12.9051 29.2904 13.737C27.8243 14.0076 26.8047 12.7495 27.1046 11.3021H26.4515L26.3249 12.6346H25.1387C25.4919 10.6731 23.9058 10.7137 24.2657 12.6346H22.9528C22.8595 12.0191 23.366 11.0789 22.2998 11.3021H22.3064Z" fill="white"/>
<path d="M20.9936 38.9791C20.8936 39.1482 20.9803 42.388 20.9936 42.9629C21.0003 43.2537 20.9669 43.5581 20.9936 43.8489H20.5604C20.5604 43.5513 20.5604 43.2605 20.5604 42.9629L20.7803 42.6315L20.5604 42.5165C20.5604 41.9281 20.5604 41.3328 20.5604 40.7444C20.887 40.7106 20.887 40.1086 20.5604 40.0816C20.5604 39.7096 20.5604 39.3443 20.5604 38.9723H20.9936V38.9791Z" fill="#D8D8D8"/>
<path d="M23.1794 45.6278L23.286 45.8442L23.3927 45.6278C23.6126 45.6143 23.8325 45.6278 24.0458 45.6278C25.152 45.9998 26.878 45.9998 27.9709 45.6278H28.8439C28.8372 45.7766 28.8572 45.9254 28.8439 46.0674C26.7847 45.8781 24.299 46.3312 22.2998 46.0674C22.4264 45.9727 22.633 45.6549 22.7329 45.6278C22.8462 45.594 23.0261 45.6413 23.1661 45.6278H23.1794Z" fill="white"/>
<path d="M17.0684 15.9488C15.8289 16.314 10.7176 16.3681 9.2981 16.1855C8.9649 16.1449 8.91825 16.0096 8.77164 15.9488H17.0618H17.0684Z" fill="#878787"/>
<path d="M4.19339 23.4767C4.35999 23.4767 4.5266 23.4294 4.68653 23.4767C4.75984 23.5038 5.79277 24.329 5.87274 24.3492C7.37217 24.7212 8.21184 23.5511 8.33846 25.9049C7.98526 25.6073 7.63873 24.8768 7.24555 24.6942C6.21928 24.2275 5.08638 25.1135 4.19339 23.47V23.4767Z" fill="#C5C5C5"/>
<path d="M16.4154 30.7883C16.502 30.7815 16.7552 30.511 17.1751 30.538C17.5016 30.5583 17.3417 30.9506 18.3746 31.0115C19.2676 31.0656 18.5945 31.6946 18.8144 31.8975C18.8811 31.9584 19.3142 31.8231 19.5208 31.9043C19.7141 31.9787 19.6474 32.2357 19.834 32.3169C19.9073 32.3507 20.1539 32.1478 20.3472 32.2425C20.5271 32.3372 20.9536 32.973 21.0003 33.23C20.8736 33.2029 20.6337 33.2706 20.5671 33.23C20.0006 32.8715 19.4675 32.3845 18.7944 32.0396C18.4013 31.8367 16.6819 30.9912 16.422 31.0183V30.7951L16.4154 30.7883Z" fill="white"/>
<path d="M20.1206 14.3999C20.4138 14.4675 21.3934 14.2443 21.4334 14.5284C21.4867 14.8936 21.3934 15.3468 21.4334 15.7323C20.827 15.827 19.9007 15.313 20.1206 16.3952C20.034 16.3072 19.4475 16.5642 19.6808 15.5091C20.6137 15.4482 21.1869 15.8946 20.9936 14.7313C20.9536 14.4743 20.2672 14.8057 20.1139 14.3999H20.1206Z" fill="white"/>
<path d="M7.68538 30.3419C7.27221 29.4491 7.35884 27.3523 7.68538 26.3581C7.89197 27.4876 7.53877 29.1379 7.68538 30.3419Z" fill="#878787"/>
<path d="M32.9956 31.8975C33.0756 32.3642 32.3626 32.8783 32.3492 32.9391C32.2826 33.2773 32.4159 33.6628 32.3492 33.9672C32.2959 34.2107 31.9361 34.0822 31.9094 34.116C31.8827 34.1498 32.0094 34.5015 31.7628 34.5624C31.3363 34.6774 30.6432 34.488 30.1567 34.5624C30.1501 34.3392 30.1634 34.116 30.1567 33.8996C30.5299 34.2378 31.5562 34.4745 31.9027 34.1228C32.1493 33.8725 31.9427 33.0068 32.0294 32.7836C32.1493 32.4792 32.7291 32.1342 32.9956 31.9043V31.8975Z" fill="white"/>
<path d="M10.9575 27.6905C10.8642 26.7571 10.9041 25.33 10.9575 24.3695C11.324 25.1879 11.324 26.8248 10.9575 27.6905Z" fill="#878787"/>
<path d="M17.9414 45.6278C17.9348 45.7766 17.9548 45.9254 17.9414 46.0674C17.435 46.0607 16.562 46.2501 16.4154 45.6278C16.9152 45.5872 17.435 45.6549 17.9414 45.6278Z" fill="#C5C5C5"/>
<path d="M20.5604 45.6278C20.5404 45.8036 20.6537 46.0809 20.4471 46.0742C20.1073 45.993 19.7008 45.9051 19.4675 45.6278H20.5604Z" fill="white"/>
<path d="M20.5604 44.7418C20.5671 44.4442 20.5604 44.1533 20.5604 43.8557H20.7803L20.5604 44.7418Z" fill="white"/>
<path d="M25.3253 36.578C25.4386 36.7539 25.3986 39.4255 25.252 39.4255C23.3727 39.2632 24.219 37.464 24.0591 36.1045C24.1324 36.0166 25.2919 36.5239 25.3319 36.5848L25.3253 36.578Z" fill="#CBCBCB"/>
<path d="M25.3119 32.1613C25.4252 32.3575 25.4119 34.2851 25.3586 34.6639C25.3253 34.9209 25.4452 35.1103 25.0387 34.9818C23.3394 34.461 24.2523 33.142 24.0458 31.6676C24.179 31.5255 25.2253 32.0125 25.3053 32.1545L25.3119 32.1613Z" fill="#D8D8D8"/>
<path d="M25.3253 27.7243C25.4119 27.8664 25.4052 29.8887 25.3586 30.2404C25.3253 30.4974 25.4452 30.6868 25.0387 30.5583C23.3394 30.0375 24.2523 28.7186 24.0458 27.2441C24.1191 27.1562 25.2786 27.6634 25.3186 27.7243H25.3253Z" fill="#D8D8D8"/>
<path d="M27.5377 40.528C25.6851 40.0342 26.3049 38.7559 26.2316 37.207C28.2042 37.1461 27.3978 39.1685 27.5377 40.528Z" fill="#D8D8D8"/>
<path d="M27.5377 31.6743C25.5119 31.4917 26.3915 29.8752 26.2316 28.3534C28.0842 28.8471 27.4644 30.1255 27.5377 31.6743Z" fill="#D8D8D8"/>
<path d="M27.5044 33.257C27.731 33.6155 27.4178 35.5093 27.5377 36.0978C25.6851 35.6108 26.3049 34.3325 26.2316 32.7768C26.3049 32.6889 27.4644 33.1962 27.5044 33.257Z" fill="#D8D8D8"/>
<path d="M27.9776 45.6278C26.8847 45.9998 25.1587 45.9998 24.0524 45.6278C25.3586 45.594 26.6781 45.6278 27.9776 45.6278Z" fill="white"/>
<path d="M23.1794 45.6278C23.2527 45.621 23.326 45.6278 23.3993 45.6278L23.2927 45.8442L23.1861 45.6278H23.1794Z" fill="white"/>
<path d="M19.4409 34.1363C19.5408 34.2986 19.5142 36.7674 19.3609 36.7674C17.2684 36.5036 18.0614 35.3605 17.9481 33.6628C18.0014 33.602 19.4009 34.0687 19.4475 34.1363H19.4409Z" fill="#D8D8D8"/>
<path d="M19.4409 38.1201C19.6075 38.3163 19.3742 40.4806 19.4608 40.9744C19.3942 41.0488 18.0147 40.7985 17.9614 40.7309C17.7948 40.5347 18.0281 38.3704 17.9414 37.8766C18.0081 37.8022 19.3875 38.0525 19.4409 38.1201ZM19.2476 39.4255C18.7944 38.9656 17.9214 39.8449 18.3746 40.3115C18.8278 40.7782 19.7008 39.8922 19.2476 39.4255Z" fill="#C5C5C5"/>
<path d="M20.9936 33.2232C21.0336 33.4802 20.9803 33.8252 20.9936 34.1092L20.7803 34.2175L20.9936 34.3257C21.0336 35.6514 20.9669 36.9838 20.9936 38.3095C20.8936 38.323 20.9403 38.8303 20.5604 38.0863V35.8746L20.7737 35.7664L20.5604 35.6581V33.2232C20.6271 33.2638 20.867 33.1962 20.9936 33.2232Z" fill="#D8D8D8"/>
<path d="M20.5604 38.093C20.9403 38.8371 20.9003 38.3298 20.9936 38.3163C21.4201 38.2621 21.5934 38.3839 21.4334 38.8709C21.3868 39.0197 21.0003 38.9588 20.9936 38.9791H20.5604V38.093Z" fill="white"/>
<path d="M20.5604 40.7512C20.5604 40.528 20.5604 40.3115 20.5604 40.0883C20.887 40.1222 20.887 40.7241 20.5604 40.7512Z" fill="white"/>
<path d="M20.5604 42.9697C20.5604 42.8209 20.5604 42.6721 20.5604 42.53L20.7803 42.645L20.5604 42.9764V42.9697Z" fill="white"/>
<path d="M20.5604 35.8813V35.6581L20.7737 35.7731L20.5604 35.8813Z" fill="white"/>
<path d="M18.3746 31.0115C18.2747 30.2472 18.6678 30.6733 19.0344 30.6801C20.2339 30.7071 21.3201 30.768 20.9869 29.165C20.9536 28.9891 20.3005 28.9824 20.5538 28.3534H21.4268C21.4134 29.3409 21.1802 29.6046 22.2998 29.4626C22.2864 31.1332 22.5263 33.5817 22.3131 35.1238C22.2065 35.8746 21.6267 36.2804 21.8733 37.2882C21.9199 37.4708 22.2665 37.3491 22.3198 37.7549C22.5197 39.3241 22.1332 41.3464 22.3064 42.9764H20.9936C20.9803 42.3948 20.8936 39.1617 20.9936 38.9859C21.0069 38.9656 21.3868 39.0265 21.4334 38.8777C21.5934 38.3907 21.4201 38.2689 20.9936 38.323C20.9669 36.9973 21.0336 35.6581 20.9936 34.3392C20.9936 34.2648 20.9936 34.1904 20.9936 34.116C20.9803 33.8319 21.0336 33.487 20.9936 33.23C20.9536 32.973 20.5271 32.3372 20.3405 32.2425C20.1473 32.1478 19.894 32.3507 19.8274 32.3169C19.6475 32.2357 19.7074 31.9787 19.5142 31.9043C19.3076 31.8231 18.8811 31.9584 18.8078 31.8975C18.5879 31.6946 19.2609 31.0656 18.3679 31.0115H18.3746Z" fill="white"/>
<path d="M27.1046 17.7208C26.4848 18.1267 25.8517 18.3769 25.0654 18.1672C24.8188 18.0996 25.0987 17.6059 24.5989 17.7208C24.399 17.7682 24.5722 18.1131 24.3456 18.1672C23.506 18.3837 22.7729 18.2281 22.3064 17.4976C22.2398 16.8348 22.1998 14.2172 22.5063 13.825C22.8529 13.3853 26.1649 13.3718 26.6714 13.622C27.2845 13.9264 27.2179 16.9836 27.1046 17.7208Z" fill="#CBCBCB"/>
<path d="M22.3064 17.4976C22.7729 18.2281 23.506 18.3837 24.3456 18.1672C24.5722 18.1131 24.3923 17.7614 24.5989 17.7208C25.0987 17.6126 24.8188 18.1064 25.0654 18.1672C25.8517 18.3769 26.4848 18.1267 27.1046 17.7208C27.0846 17.8629 27.1046 18.0523 27.0113 18.1672C26.758 18.4716 23.6659 18.4648 23.0595 18.3904C22.2598 18.289 22.3797 18.2011 22.3064 17.4909V17.4976Z" fill="white"/>
<path d="M34.4551 24.8295C35.3614 24.5995 35.7812 26.0875 34.8083 26.331C33.902 26.561 33.4821 25.073 34.4551 24.8295Z" fill="#C5C5C5"/>
<path d="M14.0096 20.379C12.5702 20.7442 12.6901 18.9654 13.6831 19.2765C14.0429 19.3915 14.0496 20.0543 14.0096 20.379Z" fill="#D8D8D8"/>
<path d="M19.2476 39.4255C19.7008 39.8854 18.8344 40.7715 18.3746 40.3115C17.9148 39.8516 18.7878 38.9656 19.2476 39.4255Z" fill="white"/>
<path d="M20.9936 34.3324L20.7803 34.2242L20.9936 34.116C20.9936 34.1904 20.9936 34.2648 20.9936 34.3392V34.3324Z" fill="white"/>
</svg>
