<svg width="243" height="67" viewBox="0 0 243 67" fill="none" xmlns="http://www.w3.org/2000/svg">
<path opacity="0.8" d="M64.4606 57.3023C63.9042 57.3023 63.4013 57.206 62.9519 57.0134C62.5025 56.8208 62.1226 56.5426 61.8123 56.1788C61.5056 55.8115 61.2845 55.3674 61.1489 54.8467L61.9247 54.6434C62.0959 55.2354 62.4026 55.7027 62.8449 56.0451C63.2872 56.3875 63.815 56.5551 64.4285 56.548C64.8458 56.5409 65.2346 56.4624 65.5948 56.3126C65.9586 56.1592 66.26 55.9203 66.499 55.5957C66.7272 55.2961 66.8842 54.9858 66.9698 54.6648C67.0554 54.3402 67.1071 54.0067 67.1249 53.6643H64.3001V52.91H67.1303C67.091 52.3464 66.9644 51.8471 66.7504 51.4119C66.5364 50.9768 66.235 50.638 65.8463 50.3954C65.4575 50.1529 64.9849 50.0352 64.4285 50.0423C63.7687 50.0495 63.2158 50.2314 62.77 50.588C62.3277 50.9447 62.0352 51.4333 61.8926 52.0539L61.0954 51.9362C61.288 51.0909 61.6804 50.4364 62.2724 49.9728C62.8645 49.5091 63.5939 49.2773 64.4606 49.2773C65.206 49.2773 65.8373 49.4449 66.3545 49.7802C66.8753 50.1154 67.2729 50.5845 67.5476 51.1872C67.8222 51.79 67.9649 52.4909 67.9756 53.2898C67.9863 54.0388 67.8561 54.7165 67.585 55.3228C67.3175 55.9292 66.9198 56.4107 66.392 56.7673C65.8641 57.124 65.2203 57.3023 64.4606 57.3023ZM69.0416 57.1418L69.0469 51.3638H69.8387V54.1458L72.4175 51.3638H73.4661L70.7589 54.2528L73.8192 57.1418H72.6743L69.8387 54.3598V57.1418H69.0416ZM76.6636 57.3023C76.0893 57.3023 75.5989 57.1722 75.1923 56.9118C74.7857 56.6514 74.4736 56.2912 74.256 55.8311C74.0385 55.371 73.9297 54.8431 73.9297 54.2475C73.9297 53.6411 74.0403 53.1097 74.2614 52.6532C74.4825 52.1966 74.7964 51.8417 75.203 51.5885C75.6132 51.3317 76.1 51.2033 76.6636 51.2033C77.2414 51.2033 77.7336 51.3335 78.1402 51.5938C78.5503 51.8506 78.8624 52.2091 79.0764 52.6692C79.294 53.1257 79.4028 53.6518 79.4028 54.2475C79.4028 54.8538 79.294 55.387 79.0764 55.8471C78.8589 56.3037 78.545 56.6603 78.1348 56.9171C77.7247 57.1739 77.2342 57.3023 76.6636 57.3023ZM76.6636 56.548C77.3056 56.548 77.7835 56.3358 78.0974 55.9113C78.4112 55.4833 78.5682 54.9287 78.5682 54.2475C78.5682 53.5484 78.4095 52.992 78.092 52.5783C77.7782 52.1645 77.302 51.9576 76.6636 51.9576C76.232 51.9576 75.8753 52.0557 75.5936 52.2519C75.3154 52.4445 75.1067 52.7138 74.9676 53.0598C74.8321 53.4022 74.7643 53.7981 74.7643 54.2475C74.7643 54.943 74.9248 55.5012 75.2458 55.922C75.5668 56.3393 76.0394 56.548 76.6636 56.548ZM82.9798 57.3023C82.3984 57.3023 81.9062 57.1722 81.5032 56.9118C81.1001 56.6514 80.7934 56.293 80.583 55.8364C80.3761 55.3763 80.2691 54.8485 80.262 54.2528C80.2691 53.6465 80.3797 53.115 80.5937 52.6585C80.8077 52.1984 81.1162 51.8417 81.5192 51.5885C81.9223 51.3317 82.4109 51.2033 82.9852 51.2033C83.5701 51.2033 84.0783 51.346 84.5099 51.6313C84.9451 51.9166 85.2429 52.3072 85.4034 52.803L84.633 53.0491C84.4974 52.7031 84.2816 52.4356 83.9856 52.2465C83.6931 52.0539 83.3579 51.9576 82.9798 51.9576C82.5554 51.9576 82.204 52.0557 81.9258 52.2519C81.6476 52.4445 81.4408 52.7138 81.3052 53.0598C81.1697 53.4057 81.1001 53.8034 81.0966 54.2528C81.1037 54.9448 81.2642 55.5012 81.5781 55.922C81.892 56.3393 82.3592 56.548 82.9798 56.548C83.3721 56.548 83.7056 56.4588 83.9803 56.2805C84.2585 56.0986 84.4689 55.8346 84.6116 55.4887L85.4034 55.7241C85.1894 56.2377 84.8755 56.63 84.4618 56.9011C84.048 57.1686 83.554 57.3023 82.9798 57.3023ZM91.0981 51.3638V57.1418H90.333V52.6425L87.1658 57.1418H86.5024V51.3638H87.2674V55.8257L90.44 51.3638H91.0981ZM94.9965 57.3023C94.4151 57.3023 93.9229 57.1722 93.5199 56.9118C93.1169 56.6514 92.8101 56.293 92.5997 55.8364C92.3928 55.3763 92.2858 54.8485 92.2787 54.2528C92.2858 53.6465 92.3964 53.115 92.6104 52.6585C92.8244 52.1984 93.1329 51.8417 93.536 51.5885C93.939 51.3317 94.4276 51.2033 95.0019 51.2033C95.5868 51.2033 96.0951 51.346 96.5266 51.6313C96.9618 51.9166 97.2596 52.3072 97.4201 52.803L96.6497 53.0491C96.5141 52.7031 96.2984 52.4356 96.0023 52.2465C95.7099 52.0539 95.3746 51.9576 94.9965 51.9576C94.5721 51.9576 94.2208 52.0557 93.9426 52.2519C93.6644 52.4445 93.4575 52.7138 93.3219 53.0598C93.1864 53.4057 93.1169 53.8034 93.1133 54.2528C93.1204 54.9448 93.2809 55.5012 93.5948 55.922C93.9087 56.3393 94.3759 56.548 94.9965 56.548C95.3889 56.548 95.7223 56.4588 95.997 56.2805C96.2752 56.0986 96.4856 55.8346 96.6283 55.4887L97.4201 55.7241C97.2061 56.2377 96.8922 56.63 96.4785 56.9011C96.0647 57.1686 95.5708 57.3023 94.9965 57.3023ZM99.9457 57.1418V52.0914H97.8967V51.3638H102.781V52.0914H100.732V57.1418H99.9457ZM106.246 57.3023C105.683 57.3023 105.194 57.1775 104.78 56.9278C104.37 56.6782 104.051 56.3269 103.823 55.8739C103.594 55.4209 103.48 54.8895 103.48 54.2796C103.48 53.6483 103.593 53.1026 103.817 52.6425C104.042 52.1823 104.358 51.8275 104.764 51.5778C105.175 51.3281 105.658 51.2033 106.214 51.2033C106.785 51.2033 107.272 51.3353 107.675 51.5992C108.078 51.8596 108.383 52.2341 108.59 52.7227C108.797 53.2113 108.891 53.7945 108.873 54.4722H108.071V54.194C108.056 53.445 107.894 52.8796 107.584 52.498C107.277 52.1164 106.828 51.9255 106.236 51.9255C105.615 51.9255 105.139 52.1271 104.807 52.5301C104.479 52.9331 104.315 53.5074 104.315 54.2528C104.315 54.9804 104.479 55.5457 104.807 55.9488C105.139 56.3483 105.608 56.548 106.214 56.548C106.628 56.548 106.988 56.4535 107.295 56.2644C107.605 56.0718 107.85 55.7954 108.028 55.4352L108.761 55.7187C108.533 56.2216 108.196 56.6122 107.75 56.8904C107.307 57.165 106.806 57.3023 106.246 57.3023ZM104.037 54.4722V53.8141H108.451V54.4722H104.037ZM109.898 57.1418V51.3638H110.599L112.852 56.0932L115.109 51.3638H115.805V57.1418H115.045V53.0437L113.103 57.1418H112.606L110.663 53.0437V57.1418H109.898ZM118.955 57.3023C118.52 57.3023 118.154 57.2239 117.858 57.0669C117.566 56.91 117.346 56.7014 117.2 56.441C117.054 56.1806 116.981 55.8971 116.981 55.5903C116.981 55.2765 117.043 55.009 117.168 54.7878C117.297 54.5631 117.47 54.3794 117.687 54.2368C117.908 54.0941 118.163 53.9853 118.452 53.9104C118.745 53.8391 119.067 53.7767 119.421 53.7232C119.777 53.6661 120.125 53.6179 120.464 53.5787C120.806 53.5359 121.106 53.4949 121.363 53.4557L121.084 53.6269C121.095 53.0562 120.985 52.6335 120.753 52.3589C120.521 52.0843 120.118 51.9469 119.544 51.9469C119.148 51.9469 118.812 52.0361 118.538 52.2144C118.267 52.3928 118.076 52.6746 117.965 53.0598L117.2 52.8351C117.332 52.3179 117.598 51.9166 117.997 51.6313C118.397 51.346 118.916 51.2033 119.554 51.2033C120.082 51.2033 120.53 51.3032 120.897 51.5029C121.268 51.6991 121.53 51.9844 121.684 52.3589C121.755 52.5265 121.801 52.7138 121.823 52.9207C121.844 53.1275 121.855 53.338 121.855 53.552V57.1418H121.154V55.692L121.357 55.7776C121.161 56.2734 120.856 56.6514 120.442 56.9118C120.029 57.1722 119.533 57.3023 118.955 57.3023ZM119.046 56.6229C119.413 56.6229 119.734 56.5569 120.009 56.4249C120.284 56.293 120.505 56.1129 120.672 55.8846C120.84 55.6527 120.949 55.3924 120.999 55.1035C121.042 54.918 121.065 54.7147 121.068 54.4936C121.072 54.2689 121.074 54.1012 121.074 53.9907L121.373 54.1458C121.106 54.1815 120.815 54.2172 120.501 54.2528C120.191 54.2885 119.884 54.3295 119.581 54.3759C119.281 54.4222 119.01 54.4775 118.768 54.5417C118.604 54.5881 118.445 54.6541 118.292 54.7397C118.138 54.8217 118.012 54.9323 117.912 55.0714C117.815 55.2105 117.767 55.3835 117.767 55.5903C117.767 55.758 117.808 55.9203 117.89 56.0772C117.976 56.2341 118.112 56.3643 118.297 56.4677C118.486 56.5712 118.736 56.6229 119.046 56.6229ZM129.98 51.3638V57.1418H129.215V52.6425L126.048 57.1418H125.384V51.3638H126.149V55.8257L129.322 51.3638H129.98ZM131.476 57.1418V51.3638H132.263V53.873H135.521V51.3638H136.307V57.1418H135.521V54.6273H132.263V57.1418H131.476ZM140.2 57.3023C139.619 57.3023 139.127 57.1722 138.724 56.9118C138.321 56.6514 138.014 56.293 137.803 55.8364C137.597 55.3763 137.49 54.8485 137.482 54.2528C137.49 53.6465 137.6 53.115 137.814 52.6585C138.028 52.1984 138.337 51.8417 138.74 51.5885C139.143 51.3317 139.631 51.2033 140.206 51.2033C140.791 51.2033 141.299 51.346 141.73 51.6313C142.166 51.9166 142.463 52.3072 142.624 52.803L141.853 53.0491C141.718 52.7031 141.502 52.4356 141.206 52.2465C140.914 52.0539 140.578 51.9576 140.2 51.9576C139.776 51.9576 139.425 52.0557 139.146 52.2519C138.868 52.4445 138.661 52.7138 138.526 53.0598C138.39 53.4057 138.321 53.8034 138.317 54.2528C138.324 54.9448 138.485 55.5012 138.799 55.922C139.112 56.3393 139.58 56.548 140.2 56.548C140.593 56.548 140.926 56.4588 141.201 56.2805C141.479 56.0986 141.689 55.8346 141.832 55.4887L142.624 55.7241C142.41 56.2377 142.096 56.63 141.682 56.9011C141.268 57.1686 140.775 57.3023 140.2 57.3023ZM145.149 57.1418V52.0914H143.1V51.3638H147.985V52.0914H145.936V57.1418H145.149ZM151.6 57.3023C151.068 57.3023 150.619 57.1686 150.252 56.9011C149.884 56.63 149.606 56.2644 149.417 55.8043C149.228 55.3407 149.134 54.8217 149.134 54.2475C149.134 53.6625 149.228 53.1418 149.417 52.6853C149.61 52.2251 149.891 51.8631 150.262 51.5992C150.633 51.3353 151.09 51.2033 151.632 51.2033C152.16 51.2033 152.613 51.337 152.991 51.6045C153.369 51.872 153.658 52.2358 153.858 52.696C154.061 53.1561 154.163 53.6732 154.163 54.2475C154.163 54.8253 154.061 55.3442 153.858 55.8043C153.654 56.2644 153.362 56.63 152.98 56.9011C152.599 57.1686 152.138 57.3023 151.6 57.3023ZM149 59.7099V51.3638H149.706V55.7134H149.792V59.7099H149ZM151.52 56.5694C151.923 56.5694 152.258 56.4677 152.525 56.2644C152.793 56.0611 152.993 55.7847 153.125 55.4352C153.26 55.0821 153.328 54.6862 153.328 54.2475C153.328 53.8123 153.262 53.42 153.13 53.0705C152.998 52.7209 152.797 52.4445 152.525 52.2412C152.258 52.0379 151.917 51.9362 151.504 51.9362C151.101 51.9362 150.765 52.0343 150.498 52.2305C150.234 52.4267 150.036 52.6995 149.904 53.0491C149.772 53.395 149.706 53.7945 149.706 54.2475C149.706 54.6933 149.772 55.0928 149.904 55.4459C150.036 55.7954 150.236 56.0701 150.503 56.2698C150.771 56.4695 151.109 56.5694 151.52 56.5694ZM155.952 59.7099L157.07 56.6764L157.087 57.5752L154.556 51.3638H155.391L157.466 56.5587H157.124L159.039 51.3638H159.842L156.739 59.7099H155.952ZM160.766 57.1418V51.3638H161.467L163.719 56.0932L165.977 51.3638H166.672V57.1418H165.912V53.0437L163.97 57.1418H163.473L161.531 53.0437V57.1418H160.766ZM170.614 57.3023C170.051 57.3023 169.562 57.1775 169.148 56.9278C168.738 56.6782 168.419 56.3269 168.191 55.8739C167.962 55.4209 167.848 54.8895 167.848 54.2796C167.848 53.6483 167.961 53.1026 168.185 52.6425C168.41 52.1823 168.726 51.8275 169.132 51.5778C169.542 51.3281 170.026 51.2033 170.582 51.2033C171.153 51.2033 171.64 51.3353 172.043 51.5992C172.446 51.8596 172.751 52.2341 172.957 52.7227C173.164 53.2113 173.259 53.7945 173.241 54.4722H172.439V54.194C172.424 53.445 172.262 52.8796 171.952 52.498C171.645 52.1164 171.196 51.9255 170.603 51.9255C169.983 51.9255 169.507 52.1271 169.175 52.5301C168.847 52.9331 168.683 53.5074 168.683 54.2528C168.683 54.9804 168.847 55.5457 169.175 55.9488C169.507 56.3483 169.976 56.548 170.582 56.548C170.996 56.548 171.356 56.4535 171.663 56.2644C171.973 56.0718 172.217 55.7954 172.396 55.4352L173.129 55.7187C172.9 56.2216 172.563 56.6122 172.118 56.8904C171.675 57.165 171.174 57.3023 170.614 57.3023ZM168.405 54.4722V53.8141H172.818V54.4722H168.405ZM174.423 57.1418V51.3638H175.209V53.873H178.468V51.3638H179.254V57.1418H178.468V54.6273H175.209V57.1418H174.423ZM182.318 57.1418V52.0914H180.269V51.3638H185.153V52.0914H183.104V57.1418H182.318ZM188.482 57.3023C187.907 57.3023 187.417 57.1722 187.01 56.9118C186.604 56.6514 186.292 56.2912 186.074 55.8311C185.857 55.371 185.748 54.8431 185.748 54.2475C185.748 53.6411 185.858 53.1097 186.08 52.6532C186.301 52.1966 186.615 51.8417 187.021 51.5885C187.431 51.3317 187.918 51.2033 188.482 51.2033C189.06 51.2033 189.552 51.3335 189.958 51.5938C190.369 51.8506 190.681 52.2091 190.895 52.6692C191.112 53.1257 191.221 53.6518 191.221 54.2475C191.221 54.8538 191.112 55.387 190.895 55.8471C190.677 56.3037 190.363 56.6603 189.953 56.9171C189.543 57.1739 189.052 57.3023 188.482 57.3023ZM188.482 56.548C189.124 56.548 189.602 56.3358 189.916 55.9113C190.229 55.4833 190.386 54.9287 190.386 54.2475C190.386 53.5484 190.228 52.992 189.91 52.5783C189.596 52.1645 189.12 51.9576 188.482 51.9576C188.05 51.9576 187.693 52.0557 187.412 52.2519C187.134 52.4445 186.925 52.7138 186.786 53.0598C186.65 53.4022 186.582 53.7981 186.582 54.2475C186.582 54.943 186.743 55.5012 187.064 55.922C187.385 56.3393 187.858 56.548 188.482 56.548ZM192.396 57.1418V51.3638H194.777C194.898 51.3638 195.044 51.3709 195.215 51.3852C195.39 51.3995 195.552 51.4262 195.702 51.4654C196.027 51.551 196.287 51.7258 196.483 51.9897C196.683 52.2537 196.783 52.5711 196.783 52.9421C196.783 53.1489 196.751 53.3344 196.687 53.4985C196.626 53.659 196.539 53.7981 196.424 53.9158C196.371 53.9764 196.312 54.0299 196.248 54.0763C196.184 54.1191 196.121 54.1547 196.061 54.1833C196.175 54.2047 196.298 54.2546 196.43 54.3331C196.637 54.4543 196.794 54.6184 196.901 54.8253C197.008 55.0286 197.061 55.2765 197.061 55.5689C197.061 55.9648 196.967 56.2876 196.777 56.5373C196.588 56.787 196.335 56.9582 196.018 57.0509C195.875 57.0901 195.72 57.1151 195.552 57.1258C195.388 57.1365 195.233 57.1418 195.087 57.1418H192.396ZM193.188 56.4731H195.049C195.124 56.4731 195.219 56.4677 195.333 56.457C195.447 56.4428 195.549 56.4249 195.638 56.4035C195.848 56.35 196.002 56.243 196.098 56.0825C196.198 55.9185 196.248 55.7401 196.248 55.5475C196.248 55.2943 196.173 55.0874 196.023 54.9269C195.877 54.7629 195.681 54.663 195.435 54.6273C195.353 54.6095 195.267 54.5988 195.178 54.5952C195.089 54.5917 195.008 54.5899 194.937 54.5899H193.188V56.4731ZM193.188 53.9158H194.803C194.896 53.9158 194.999 53.9104 195.114 53.8997C195.231 53.8854 195.333 53.8623 195.419 53.8302C195.604 53.766 195.74 53.6554 195.825 53.4985C195.914 53.3415 195.959 53.1703 195.959 52.9849C195.959 52.7816 195.911 52.6032 195.814 52.4499C195.722 52.2965 195.581 52.1895 195.392 52.1288C195.263 52.0825 195.124 52.0557 194.975 52.0486C194.828 52.0415 194.736 52.0379 194.696 52.0379H193.188V53.9158ZM199.841 58.4259V56.4677C200.17 56.4677 200.405 56.3625 200.548 56.1521C200.69 55.9381 200.806 55.5975 200.895 55.1302C200.956 54.8271 201.006 54.5007 201.045 54.1512C201.084 53.8016 201.118 53.4022 201.147 52.9528C201.175 52.4998 201.202 51.9701 201.227 51.3638H205.047V56.4677H205.603V58.4259H204.844V57.1418H200.596V58.4259H199.841ZM201.174 56.4677H204.266V52.0379H201.955C201.944 52.309 201.928 52.5961 201.907 52.8993C201.889 53.2024 201.866 53.5056 201.837 53.8088C201.812 54.1119 201.782 54.3973 201.746 54.6648C201.714 54.9287 201.675 55.1605 201.628 55.3603C201.575 55.6171 201.516 55.8364 201.452 56.0183C201.391 56.2002 201.298 56.35 201.174 56.4677ZM206.14 57.1418V56.4517C206.354 56.4909 206.516 56.482 206.627 56.4249C206.741 56.3643 206.825 56.2644 206.878 56.1253C206.932 55.9827 206.976 55.8061 207.012 55.5957C207.069 55.2461 207.121 54.8609 207.167 54.4401C207.213 54.0192 207.254 53.5555 207.29 53.0491C207.329 52.539 207.369 51.9773 207.408 51.3638H211.335V57.1418H210.554V52.1181H208.135C208.11 52.4962 208.082 52.8725 208.05 53.247C208.018 53.6215 207.984 53.9817 207.948 54.3277C207.916 54.6701 207.88 54.9858 207.841 55.2747C207.802 55.5636 207.761 55.8132 207.718 56.0237C207.654 56.3411 207.568 56.5944 207.461 56.7834C207.358 56.9724 207.203 57.0973 206.996 57.1579C206.789 57.2185 206.504 57.2132 206.14 57.1418ZM216.452 57.1418V54.9644H215.103C214.946 54.9644 214.784 54.959 214.616 54.9483C214.452 54.9341 214.299 54.9144 214.156 54.8895C213.75 54.811 213.404 54.6327 213.118 54.3545C212.837 54.0727 212.696 53.6839 212.696 53.1882C212.696 52.7031 212.828 52.3143 213.092 52.0218C213.356 51.7258 213.675 51.5332 214.049 51.444C214.221 51.4048 214.394 51.3816 214.568 51.3745C214.747 51.3674 214.9 51.3638 215.028 51.3638H217.238L217.243 57.1418H216.452ZM212.509 57.1418L214.119 54.7183H214.991L213.37 57.1418H212.509ZM215.061 54.2903H216.452V52.0379H215.061C214.975 52.0379 214.855 52.0415 214.702 52.0486C214.549 52.0557 214.404 52.0789 214.269 52.1181C214.151 52.1538 214.033 52.2162 213.916 52.3054C213.801 52.391 213.705 52.5069 213.627 52.6532C213.548 52.7958 213.509 52.9706 213.509 53.1775C213.509 53.4664 213.587 53.6982 213.744 53.873C213.905 54.0442 214.105 54.1619 214.344 54.2261C214.472 54.2546 214.6 54.2724 214.729 54.2796C214.857 54.2867 214.968 54.2903 215.061 54.2903ZM220.244 57.1418L223.657 53.1561L220.538 49.4378H221.528L224.508 53.0384V49.4378H225.294V53.0384L228.274 49.4378H229.264L226.145 53.1561L229.558 57.1418H228.553L225.294 53.3273V57.1418H224.508V53.3273L221.255 57.1418H220.244ZM230.416 57.1418V49.4378H231.202V53.0758L234.717 49.4378H235.723L232.133 53.1561L236.017 57.1418H234.99L231.202 53.2898V57.1418H230.416ZM236.127 57.1418L238.797 53.2417L236.196 49.4378H237.149L239.262 52.5836L241.375 49.4378H242.333L239.733 53.2417L242.397 57.1418H241.445L239.262 53.9051L237.085 57.1418H236.127Z" fill="#262833"/>
<path d="M62.1628 38V9.92415H79.3631V38H73.2504V15.1884H68.2754V38H62.1628ZM82.1784 38V9.92415H91.492C93.9345 9.92415 95.7857 10.7212 97.0455 12.3152C98.3053 13.9093 98.9352 16.3196 98.9352 19.5463C98.9352 22.7601 98.286 25.164 96.9876 26.7581C95.6892 28.3521 93.8124 29.1492 91.357 29.1492H88.2911V38H82.1784ZM88.2911 24.5984H90.3736C91.2863 24.5984 91.9291 24.2642 92.3019 23.5957C92.6747 22.9272 92.8611 21.616 92.8611 19.662C92.8611 17.8366 92.6811 16.5639 92.3212 15.844C91.9612 15.1112 91.3056 14.7513 90.3543 14.7642H88.2911V24.5984ZM100.324 27.1437V20.6069C100.324 16.8017 101.166 14.0057 102.85 12.2188C104.534 10.4319 106.777 9.5385 109.579 9.5385C112.407 9.5385 114.664 10.4319 116.348 12.2188C118.032 14.0057 118.874 16.8017 118.874 20.6069V27.1437C118.874 30.9489 118.025 33.7771 116.328 35.6282C114.631 37.4665 112.382 38.3857 109.579 38.3857C106.803 38.3857 104.566 37.4665 102.869 35.6282C101.172 33.7771 100.324 30.9489 100.324 27.1437ZM106.706 28.8792C106.706 30.6661 106.957 31.9195 107.458 32.6394C107.972 33.3593 108.686 33.7192 109.599 33.7192C110.498 33.7192 111.206 33.3593 111.72 32.6394C112.247 31.9195 112.51 30.6661 112.51 28.8792V19.0642C112.51 17.3416 112.253 16.1204 111.739 15.4005C111.225 14.6677 110.511 14.3014 109.599 14.3014C108.686 14.3014 107.972 14.6677 107.458 15.4005C106.957 16.1204 106.706 17.3416 106.706 19.0642V28.8792ZM136.46 9.5385V13.0287H136.98C140.104 13.0287 142.45 13.9286 144.019 15.7283C145.587 17.5152 146.371 20.1955 146.371 23.7692C146.371 27.3559 145.587 30.0426 144.019 31.8295C142.463 33.6035 140.098 34.4969 136.922 34.5098H136.46V38.3857H130.424V34.5098H129.942C126.78 34.5098 124.414 33.6164 122.846 31.8295C121.278 30.0426 120.493 27.3559 120.493 23.7692C120.493 20.1826 121.284 17.4959 122.865 15.709C124.459 13.9221 126.805 13.0287 129.903 13.0287H130.424V9.5385H136.46ZM136.768 17.3866H136.44V30.2869H136.768C137.925 30.2869 138.748 29.7984 139.236 28.8214C139.725 27.8315 139.969 26.1603 139.969 23.8078C139.969 21.2753 139.725 19.572 139.236 18.6979C138.748 17.8237 137.925 17.3866 136.768 17.3866ZM130.116 17.3866C128.971 17.3866 128.149 17.8173 127.647 18.6786C127.159 19.5399 126.915 21.2368 126.915 23.7692C126.915 26.3274 127.159 28.0565 127.647 28.9563C128.149 29.8433 128.971 30.2869 130.116 30.2869H130.443V17.3866H130.116ZM166.04 38H160.023L160.004 23.5379C160.004 23.0622 160.01 22.5737 160.023 22.0724C160.049 21.5581 160.068 21.1146 160.081 20.7418H159.965C159.888 21.1018 159.792 21.5196 159.676 21.9952C159.561 22.458 159.406 22.9272 159.213 23.4029L155.183 38H148.396V9.92415H154.412V24.3092C154.412 24.7077 154.406 25.1833 154.393 25.7361C154.38 26.2889 154.367 26.7324 154.354 27.0666H154.47C154.573 26.6038 154.682 26.1539 154.798 25.7168C154.913 25.2797 155.061 24.8491 155.241 24.4249L159.252 9.92415H166.04V38ZM186.961 38V9.92415H192.978V38H186.961ZM198.011 38L193.479 24.7141L198.84 21.3782L204.721 38H198.011ZM189.97 20.8575H193.923L197.741 9.92415H203.969L198.223 26.2567H189.97V20.8575ZM175.276 38L181.177 21.3975L186.499 24.7141L181.929 38H175.276ZM189.97 20.8575V26.2567H181.639L175.912 9.92415H182.199L186.017 20.8575H189.97ZM217.467 38L212.473 24.5598L217.853 21.2046L224.274 38H217.467ZM208.828 20.8383H212.897L217.216 9.92415H223.522L216.618 26.2567H208.828V20.8383ZM205.743 38V9.92415H211.856V38H205.743ZM223.618 38L231.081 20.9925H232.18L236.692 9.92415H242.342L235.342 26.141H234.262L229.422 38H223.618ZM224.004 9.92415H230.541L235.188 21.1661L235.516 21.1468L242.515 38H235.959L231.1 25.7554H230.791L224.004 9.92415Z" fill="#262833"/>
<g clip-path="url(#clip0_21_579)">
<path d="M24.0524 0.790009C24.0724 0.911755 24.0124 1.20259 24.0524 1.22965C24.1857 1.3311 26.7714 1.1823 27.3245 1.22965C35.628 1.91954 42.3187 10.8408 43.7449 18.6732C45.9707 20.0327 49.6226 20.9052 51.5485 22.4879C51.6485 23.3063 51.5818 23.4686 50.7688 23.5701C49.4893 23.7324 42.3054 23.3131 41.9789 23.8474C41.539 24.6996 42.4787 26.2147 42.392 26.7761C42.3854 26.8369 42.0655 27.2698 41.8722 27.7298C41.8123 27.8786 41.3125 27.7433 41.519 28.7849C41.559 28.9878 41.7056 29.069 41.7256 29.1298C42.5187 31.3348 44.9177 33.6074 45.5375 35.3389C45.6908 35.765 45.7108 36.8404 45.5575 37.226C45.111 38.3352 42.8719 37.855 42.6253 38.5719C42.2854 39.5594 43.1051 40.4928 43.0385 41.1962C42.9785 41.7644 42.2921 41.9538 42.1921 42.3528C42.0922 42.7722 42.532 43.3606 42.3387 44.0302C42.2054 44.4969 41.4524 44.781 41.3258 45.2342C41.1392 45.9038 41.659 46.8777 41.7256 47.6217C42.0788 51.6394 38.7801 51.6732 35.7279 51.4906C34.595 51.4229 31.7428 50.4828 31.0697 51.6394C30.2101 55.1903 28.6773 59.1741 29.0905 62.8738C29.2304 64.1522 29.9768 65.4373 29.8302 66.7765C23.4127 63.185 17.3817 58.4572 10.2511 56.3063C8.64501 55.8193 7.01897 55.6299 5.40626 55.2444C5.15969 55.1835 4.99308 55.1632 4.84647 54.9197C6.87236 50.9292 9.81123 46.3163 9.43804 41.6291C9.24478 39.1874 7.66539 37.9091 6.50584 35.9747C5.15302 33.7224 4.61323 32.3291 3.98014 29.7927C3.67359 29.0825 4.57325 29.2245 4.41997 28.7984C4.34667 28.5955 4.03345 28.7646 3.98014 28.5414C3.90684 28.2438 4.06011 27.4321 3.98014 27.351C3.88684 27.2563 2.3541 27.4457 1.94759 27.351C1.79431 27.3104 1.8343 27.006 1.62771 26.9249C1.43445 26.8437 1.00795 26.9857 0.934645 26.9113C0.86134 26.8369 0.994622 26.4041 0.921317 26.2079C0.834684 25.9982 0.534799 26.0388 0.494815 25.8833C0.268235 24.9296 0.534799 23.4957 1.42779 23.0019C1.94093 22.7179 2.37409 23.3469 2.38742 21.9739C2.38742 21.8115 2.24081 21.6695 2.24081 21.6086C2.24747 19.9989 2.54069 18.5379 2.92055 17.1108C4.49994 11.1249 7.86531 6.23477 13.3832 3.36697C15.2291 2.40653 18.1614 1.33787 19.9007 1.23641C20.4205 1.20259 22.8329 1.3311 22.9595 1.23641C22.9928 1.20936 22.9395 0.918518 22.9595 0.796772C23.3194 0.790009 23.6859 0.796772 24.0524 0.796772V0.790009ZM17.0684 16.7388C18.3813 16.3465 18.9477 15.4875 18.4946 14.0671C18.2746 13.3637 17.6815 13.3434 17.4083 12.9579C16.4687 11.6457 17.1151 9.8601 14.3428 9.85334C12.3503 9.85334 12.6368 11.0505 11.8305 11.524C11.3506 11.808 10.5643 11.639 9.88454 12.2071C9.25145 12.7347 9.35807 13.3975 9.17148 13.5869C8.84494 13.9183 7.78534 13.5734 7.67872 14.8517C7.59209 15.8392 7.9053 16.3938 8.78496 16.7388C8.92491 16.7929 8.97155 16.9282 9.31142 16.9755C10.7309 17.1581 15.8356 17.1108 17.0818 16.7388H17.0684ZM22.3064 12.0921C22.6196 13.5463 21.6134 14.7908 20.1206 14.527C20.1539 14.73 20.0673 15.0478 20.1206 15.1899C20.2739 15.5957 20.9536 15.2643 21.0003 15.5213C21.1935 16.6779 20.6204 16.2383 19.6874 16.2991C19.4475 17.3475 20.0406 17.0972 20.1273 17.1852C20.1539 17.2122 20.0273 17.5707 20.2739 17.6316C20.6071 17.7195 21.0736 17.5775 21.4401 17.6316V18.7408C20.7803 18.0915 19.6741 18.9505 20.1339 19.4037C20.3272 19.593 23.0328 18.9775 22.3131 21.6221H22.9662L23.0928 20.2897H24.279C23.9258 22.2512 25.5119 22.2106 25.152 20.2897H26.4648V21.6221H27.1179C26.858 19.9786 27.7044 19.1263 29.3037 19.4037V18.7408H27.9909C27.8443 17.104 28.1109 17.8683 28.9372 17.6045C29.4037 17.4557 29.3104 16.9417 29.2971 16.5291H27.9842V15.3252L29.2971 15.1966C29.2971 14.9734 29.3104 14.7502 29.2971 14.5338C29.2438 13.7019 28.9305 14.2497 28.1508 14.0806C27.0846 13.8574 28.2775 11.4022 26.2449 11.8757C26.5981 13.8169 25.0121 13.8169 25.3719 11.8757H24.0591C24.0258 12.9105 24.4256 13.4043 23.1861 13.2081C22.9862 13.012 23.6992 11.0911 22.3131 12.0989L22.3064 12.0921ZM10.9575 28.4805C11.324 27.6148 11.324 25.978 10.9575 25.1596C11.0041 24.2938 10.8575 24.0638 11.3906 23.2792C11.5039 23.1102 12.6102 21.9806 12.7035 21.94C13.09 21.7845 13.4565 22.1971 14.003 21.9536C15.7356 21.1825 14.5827 18.592 12.6968 19.5119C11.7172 19.9921 12.3702 21.1216 12.1637 21.6086C12.0837 21.8048 10.8842 22.9681 10.6576 22.9275C9.64463 22.3797 9.64463 21.5951 9.25811 20.7902C8.43176 19.0858 6.44586 20.6955 7.44547 21.9671C7.80534 22.4203 8.49174 22.1768 8.99155 22.3932C11.324 23.4078 9.80457 27.6283 10.4043 29.5965C10.5043 29.9144 12.4369 32.0179 12.5968 32.0179C12.7368 32.0179 12.93 31.6527 12.93 31.4701C12.93 30.8005 11.1241 30.0767 10.9575 28.4805ZM33.1822 26.0118C32.2759 26.607 29.6169 25.5857 30.5832 23.9286C31.3763 22.5623 32.3559 23.0763 32.9823 22.6029C33.802 21.9806 33.4088 20.6888 32.4359 20.5129C30.7032 20.195 31.3163 21.7439 30.8232 22.6299C30.0568 24.003 28.3974 23.2184 28.0642 24.4967C27.6777 25.978 29.5703 25.6871 30.1567 25.9441C30.6232 26.147 30.9498 27.0331 31.0764 27.1075C31.4362 27.3239 32.4759 27.0331 33.0556 27.2022C33.4288 27.3104 33.6954 27.8853 34.2418 28.0071C36.4077 28.467 37.0474 24.9972 34.6284 24.9228C33.0556 24.8755 33.4222 25.8562 33.1756 26.0185L33.1822 26.0118ZM22.5197 22.9411C22.433 22.9884 22.3664 23.1372 22.2998 23.1643C20.1406 24.0368 17.8348 25.775 15.8556 27.1548C15.6223 27.3172 15.1825 27.351 15.1292 27.4051C14.9359 27.6283 15.2025 30.9493 15.0959 31.585C15.529 31.558 15.9755 31.6189 16.4087 31.585V31.8083C16.3087 31.8218 16.2421 32.0044 16.1888 32.0315C14.876 32.7213 13.3965 34.2499 12.0437 35.021V46.3163C12.0437 46.7492 14.3495 46.7357 14.736 46.6478C14.9359 46.6004 14.8026 46.0323 15.4291 46.2014C15.7756 46.2961 14.9892 46.4854 16.1888 46.4246C16.2621 46.4246 16.3354 46.4246 16.4087 46.4246C16.5553 47.0468 17.435 46.8574 17.9348 46.8642C17.9481 46.7154 17.9281 46.5666 17.9348 46.4246C17.9548 46.0593 17.9281 45.6873 17.9348 45.3153C19.9207 45.0651 18.8544 45.6941 19.4609 46.4246C19.6941 46.7019 20.1006 46.7898 20.4405 46.871C20.6471 46.8777 20.5338 46.6004 20.5538 46.4246C20.5871 46.1473 20.5471 45.8294 20.5538 45.5385L20.7737 44.6525H20.9936C21.1602 46.6207 21.4734 45.3018 21.5534 45.3018C21.6267 45.3018 22.2664 45.5182 22.2931 45.5521C22.6596 46.0931 21.0402 46.7019 22.2998 46.871C24.299 47.1348 26.7914 46.6816 28.8439 46.871C28.8572 46.7222 28.8306 46.5734 28.8439 46.4313C28.8439 46.3569 28.8439 46.2825 28.8439 46.2081C29.5037 46.3299 29.2638 45.8699 29.2771 45.4438C29.377 42.3258 29.397 38.7951 29.2771 35.6771C29.2638 35.251 29.5037 34.791 28.8439 34.9128V34.4731C29.2904 34.2905 29.7102 34.2905 30.1501 34.4731C30.1501 34.5475 30.1501 34.6219 30.1501 34.6963C30.1567 34.9195 30.1367 35.1427 30.1501 35.3592C30.6299 35.2848 31.323 35.4742 31.7561 35.3592C31.996 35.2983 31.8694 34.9398 31.9027 34.9128C31.9361 34.8857 32.2893 35.0142 32.3426 34.764C32.4092 34.4596 32.2759 34.0741 32.3426 33.7359C32.3559 33.675 33.069 33.161 32.989 32.6943C33.1156 32.5861 33.1956 32.2276 33.4088 32.1464C33.6621 32.045 34.0352 32.3561 34.5084 32.1464C35.7079 31.6189 35.2148 29.6033 33.5821 30.07C32.7891 30.3 33.1356 31.2942 32.7824 31.93C32.7224 32.045 31.7894 32.9513 31.6695 33.0122C31.5829 33.0528 30.23 33.56 30.1501 33.5736C29.9035 33.6277 29.5503 33.5398 29.2771 33.5736C29.0971 33.391 29.4703 29.1366 29.2771 28.3994C29.2104 28.1491 28.8572 28.2776 28.8372 28.2573C28.7906 28.1964 28.8106 27.9259 28.6107 27.723C26.858 25.9644 24.3523 24.5711 22.6196 22.7246C22.5663 22.7179 22.553 22.9208 22.513 22.9411H22.5197ZM7.68538 27.1481C7.35884 28.1423 7.27221 30.2458 7.68538 31.1319C7.96528 31.7406 9.42471 33.4248 9.97783 33.79C10.2577 33.9726 10.451 34.0335 10.5243 33.675C10.6909 32.8634 8.70499 31.8082 8.43843 30.9222C8.12521 29.8806 8.40511 27.9056 8.33846 26.7017C8.21185 24.3479 7.37217 25.518 5.87275 25.146C5.79278 25.1257 4.76651 24.3006 4.68654 24.2735C4.51993 24.2194 4.35333 24.2735 4.19339 24.2735C3.40703 24.2735 2.51404 24.6861 2.75395 25.606C3.34039 27.8109 7.16558 24.2532 7.68538 27.1481Z" fill="#1B435B"/>
<path d="M51.5419 22.4947C51.5885 22.5352 51.9217 22.3729 51.9883 22.6299C52.1216 23.171 51.7618 24.0435 51.2153 24.0435H42.1588C42.1721 24.9296 42.6986 25.9171 42.592 26.7896C42.492 27.5945 41.4924 28.1694 41.719 29.1366C41.699 29.0757 41.5524 28.9946 41.5124 28.7917C41.3058 27.75 41.8056 27.8786 41.8656 27.7365C42.0588 27.2766 42.372 26.8369 42.3854 26.7828C42.472 26.2215 41.5324 24.7131 41.9722 23.8542C42.2987 23.3198 49.4826 23.7392 50.7622 23.5769C51.5752 23.4754 51.6418 23.3131 51.5419 22.4947Z" fill="#093148"/>
<path d="M2.22748 21.6154C2.22748 21.6763 2.37409 21.8183 2.37409 21.9806C2.36742 23.3536 1.92759 22.7314 1.41446 23.0087C0.521468 23.4957 0.254904 24.9363 0.481484 25.89C0.521468 26.0456 0.821353 26.005 0.907986 26.2147C0.987956 26.4108 0.848009 26.8437 0.921315 26.9181C0.99462 26.9925 1.42112 26.8572 1.61438 26.9316C1.82097 27.0196 1.78098 27.3239 1.93426 27.3577C2.34077 27.4592 3.87351 27.2631 3.96681 27.3577C4.04011 27.4389 3.88684 28.2438 3.96681 28.5482C4.02012 28.7646 4.33334 28.6023 4.40664 28.8052C4.55991 29.2313 3.66692 29.0892 3.96681 29.7994C3.84019 29.2922 3.60695 27.6689 3.52698 27.5877C3.34705 27.3983 1.35448 28.0747 0.468155 26.8167C-0.291552 25.7345 -0.138278 23.6918 1.04793 22.9614C1.89427 22.4405 1.92093 23.1237 2.22081 21.6019L2.22748 21.6154Z" fill="#2F424C"/>
<path d="M27.3245 1.23641C26.7714 1.18906 24.179 1.33786 24.0524 1.23641C24.0191 1.20935 24.0724 0.918514 24.0524 0.796768C25.152 0.817059 26.3182 0.688549 27.3245 1.23641Z" fill="#324E5F"/>
<path d="M22.9595 0.790009C22.9395 0.911755 22.9995 1.20259 22.9595 1.22965C22.8396 1.32434 20.4205 1.19583 19.9007 1.22965C20.827 0.783245 21.9666 0.823827 22.9595 0.790009Z" fill="#324E5F"/>
<path d="M16.1954 46.4178C14.9959 46.4787 15.7756 46.2893 15.4357 46.1946C14.8093 46.0187 14.9426 46.5937 14.7427 46.641C14.3561 46.7289 12.0504 46.7492 12.0504 46.3096V35.0142C13.4032 34.2432 14.8893 32.7146 16.1954 32.0247V46.4178Z" fill="#1F4F6A"/>
<path d="M22.3064 23.1643C22.2864 25.5248 22.3264 27.8921 22.3064 30.2526C21.1869 30.3946 21.4201 30.1376 21.4334 29.1434H20.5604C20.3072 29.7724 20.9536 29.7859 20.9936 29.955C21.3201 31.558 20.2406 31.4971 19.041 31.4701C18.6745 31.4633 18.2813 31.0372 18.3813 31.8015C17.3483 31.7406 17.5016 31.3483 17.1817 31.328C16.7619 31.301 16.5087 31.5715 16.422 31.5783C15.9889 31.6121 15.5424 31.558 15.1092 31.5783C15.2225 30.9425 14.9493 27.6215 15.1425 27.3983C15.1892 27.3442 15.629 27.3104 15.8689 27.1481C17.8481 25.7683 20.1473 24.03 22.3131 23.1575L22.3064 23.1643Z" fill="#20536F"/>
<path d="M22.7396 46.4178C22.633 46.4449 22.433 46.7627 22.3064 46.8574C21.0469 46.6951 22.6596 46.0796 22.2998 45.5385C22.2798 45.5047 21.6334 45.2883 21.56 45.2883C21.4734 45.2883 21.1602 46.6139 21.0003 44.639C20.9736 44.3481 21.0069 44.0437 21.0003 43.7529H22.3131C22.1465 42.1296 22.533 40.1073 22.3264 38.5313C22.2731 38.1188 21.9199 38.2405 21.8799 38.0647C21.6334 37.0636 22.2198 36.6578 22.3198 35.9003C22.533 34.3649 22.2931 31.9097 22.3064 30.2391C22.3264 27.8786 22.2864 25.5113 22.3064 23.1507C22.3731 23.1237 22.4397 22.9749 22.5263 22.9275L22.7463 46.4043L22.7396 46.4178Z" fill="#31556B"/>
<path d="M28.8506 34.8992C29.5103 34.7775 29.2704 35.2374 29.2837 35.6635C29.4037 38.7816 29.3837 42.3055 29.2837 45.4303C29.2704 45.8564 29.5037 46.3163 28.8506 46.1946C28.9372 42.4407 28.8506 38.6531 28.8506 34.8992Z" fill="#1F3F53"/>
<path d="M17.9414 45.3085C17.9614 44.4969 17.9281 43.6785 17.9414 42.8736C20.3872 42.5151 19.2276 44.7742 19.4675 46.4178C18.8611 45.6941 19.9273 45.0583 17.9414 45.3085Z" fill="#324E5F"/>
<path d="M28.8506 28.2573C28.8506 28.2573 29.2304 28.1559 29.2904 28.3994C29.477 29.1366 29.1038 33.391 29.2904 33.5736C29.5636 33.5398 29.9168 33.6277 30.1634 33.5736C30.1634 33.8712 30.1634 34.162 30.1634 34.4596C29.7169 34.277 29.2971 34.277 28.8572 34.4596V28.2573H28.8506Z" fill="#1F3F53"/>
<path d="M16.4153 46.4178C16.342 46.4178 16.2687 46.4178 16.1954 46.4178V32.0247C16.2487 31.9976 16.3154 31.815 16.4153 31.8015V46.4178Z" fill="#2F424C"/>
<path d="M22.3064 12.0921C23.6926 11.0776 22.9795 12.9984 23.1794 13.2014C24.4189 13.3975 24.0124 12.9105 24.0524 11.8689H25.3652C25.0054 13.8101 26.5914 13.8101 26.2382 11.8689C28.2708 11.3955 27.0779 13.8507 28.1442 14.0739C28.9305 14.243 29.2438 13.6951 29.2904 14.527C27.8243 14.7976 26.8047 13.5395 27.1046 12.0921H26.4515L26.3249 13.4246H25.1387C25.4919 11.4631 23.9058 11.5037 24.2657 13.4246H22.9528C22.8595 12.8091 23.366 11.8689 22.2998 12.0921H22.3064Z" fill="#2F424C"/>
<path d="M20.9936 39.7691C20.8936 39.9382 20.9803 43.178 20.9936 43.7529C21.0003 44.0437 20.9669 44.3481 20.9936 44.6389H20.5604C20.5604 44.3413 20.5604 44.0505 20.5604 43.7529L20.7803 43.4215L20.5604 43.3065C20.5604 42.7181 20.5604 42.1229 20.5604 41.5344C20.887 41.5006 20.887 40.8986 20.5604 40.8716C20.5604 40.4996 20.5604 40.1343 20.5604 39.7623H20.9936V39.7691Z" fill="#264459"/>
<path d="M23.1794 46.4178L23.286 46.6342L23.3927 46.4178C23.6126 46.4043 23.8325 46.4178 24.0458 46.4178C25.152 46.7898 26.878 46.7898 27.9709 46.4178H28.8439C28.8372 46.5666 28.8572 46.7154 28.8439 46.8574C26.7847 46.6681 24.299 47.1212 22.2998 46.8574C22.4264 46.7628 22.633 46.4449 22.7329 46.4178C22.8462 46.384 23.0261 46.4313 23.1661 46.4178H23.1794Z" fill="#1F3F53"/>
<path d="M17.0684 16.7388C15.8289 17.104 10.7176 17.1581 9.2981 16.9755C8.9649 16.9349 8.91825 16.7996 8.77164 16.7388H17.0618H17.0684Z" fill="#093148"/>
<path d="M4.19339 24.2667C4.35999 24.2667 4.5266 24.2194 4.68653 24.2667C4.75984 24.2938 5.79277 25.119 5.87274 25.1393C7.37217 25.5113 8.21184 24.3411 8.33846 26.6949C7.98526 26.3973 7.63873 25.6668 7.24555 25.4842C6.21928 25.0175 5.08638 25.9036 4.19339 24.26V24.2667Z" fill="#324E5F"/>
<path d="M16.4154 31.5783C16.502 31.5715 16.7552 31.301 17.1751 31.328C17.5016 31.3483 17.3417 31.7406 18.3746 31.8015C19.2676 31.8556 18.5945 32.4846 18.8144 32.6875C18.8811 32.7484 19.3142 32.6131 19.5208 32.6943C19.7141 32.7687 19.6474 33.0257 19.834 33.1069C19.9073 33.1407 20.1539 32.9378 20.3472 33.0325C20.5271 33.1272 20.9536 33.763 21.0003 34.02C20.8736 33.9929 20.6337 34.0606 20.5671 34.02C20.0006 33.6615 19.4675 33.1745 18.7944 32.8296C18.4013 32.6267 16.6819 31.7812 16.422 31.8082V31.585L16.4154 31.5783Z" fill="#31556B"/>
<path d="M20.1206 15.1899C20.4138 15.2575 21.3934 15.0343 21.4334 15.3184C21.4867 15.6836 21.3934 16.1368 21.4334 16.5223C20.827 16.617 19.9007 16.103 20.1206 17.1852C20.034 17.0972 19.4475 17.3543 19.6808 16.2991C20.6137 16.2383 21.1869 16.6847 20.9936 15.5213C20.9536 15.2643 20.2672 15.5957 20.1139 15.1899H20.1206Z" fill="#2F424C"/>
<path d="M7.68538 31.1319C7.27221 30.2391 7.35884 28.1423 7.68538 27.1481C7.89197 28.2776 7.53877 29.9279 7.68538 31.1319Z" fill="#093148"/>
<path d="M32.9956 32.6875C33.0756 33.1542 32.3626 33.6683 32.3492 33.7291C32.2826 34.0673 32.4159 34.4529 32.3492 34.7572C32.2959 35.0007 31.9361 34.8722 31.9094 34.906C31.8827 34.9398 32.0094 35.2915 31.7628 35.3524C31.3363 35.4674 30.6432 35.278 30.1567 35.3524C30.1501 35.1292 30.1634 34.906 30.1567 34.6896C30.5299 35.0278 31.5562 35.2645 31.9027 34.9128C32.1493 34.6625 31.9427 33.7968 32.0294 33.5736C32.1493 33.2692 32.7291 32.9243 32.9956 32.6943V32.6875Z" fill="#2F424C"/>
<path d="M10.9575 28.4805C10.8642 27.5471 10.9041 26.12 10.9575 25.1595C11.324 25.978 11.324 27.6148 10.9575 28.4805Z" fill="#093148"/>
<path d="M17.9414 46.4178C17.9348 46.5666 17.9548 46.7154 17.9414 46.8574C17.435 46.8507 16.562 47.0401 16.4154 46.4178C16.9152 46.3772 17.435 46.4449 17.9414 46.4178Z" fill="#324E5F"/>
<path d="M20.5604 46.4178C20.5404 46.5937 20.6537 46.871 20.4471 46.8642C20.1073 46.783 19.7008 46.6951 19.4675 46.4178H20.5604Z" fill="#31556B"/>
<path d="M20.5604 45.5318C20.5671 45.2342 20.5604 44.9433 20.5604 44.6457H20.7803L20.5604 45.5318Z" fill="#31556B"/>
<path d="M25.3253 37.368C25.4386 37.5439 25.3986 40.2155 25.252 40.2155C23.3727 40.0532 24.219 38.254 24.0591 36.8945C24.1324 36.8066 25.2919 37.3139 25.3319 37.3748L25.3253 37.368Z" fill="#1B435B"/>
<path d="M25.3119 32.9513C25.4252 33.1475 25.4119 35.0751 25.3586 35.4539C25.3253 35.7109 25.4452 35.9003 25.0387 35.7718C23.3394 35.251 24.2523 33.932 24.0458 32.4576C24.179 32.3155 25.2253 32.8025 25.3053 32.9446L25.3119 32.9513Z" fill="#264459"/>
<path d="M25.3253 28.5143C25.4119 28.6564 25.4052 30.6787 25.3586 31.0304C25.3253 31.2875 25.4452 31.4768 25.0387 31.3483C23.3394 30.8275 24.2523 29.5086 24.0458 28.0341C24.1191 27.9462 25.2786 28.4535 25.3186 28.5143H25.3253Z" fill="#264459"/>
<path d="M27.5377 41.318C25.6851 40.8242 26.3049 39.5459 26.2316 37.997C28.2042 37.9361 27.3978 39.9585 27.5377 41.318Z" fill="#264459"/>
<path d="M27.5377 32.4643C25.5119 32.2817 26.3915 30.6652 26.2316 29.1434C28.0842 29.6371 27.4644 30.9154 27.5377 32.4643Z" fill="#264459"/>
<path d="M27.5044 34.047C27.731 34.4055 27.4178 36.2993 27.5377 36.8878C25.6851 36.4008 26.3049 35.1225 26.2316 33.5668C26.3049 33.4789 27.4644 33.9862 27.5044 34.047Z" fill="#264459"/>
<path d="M27.9776 46.4178C26.8847 46.7898 25.1587 46.7898 24.0524 46.4178C25.3586 46.384 26.6781 46.4178 27.9776 46.4178Z" fill="#31556B"/>
<path d="M23.1794 46.4178C23.2527 46.411 23.326 46.4178 23.3993 46.4178L23.2927 46.6342L23.1861 46.4178H23.1794Z" fill="#31556B"/>
<path d="M19.4409 34.9263C19.5408 35.0886 19.5142 37.5574 19.3609 37.5574C17.2684 37.2936 18.0614 36.1505 17.9481 34.4528C18.0014 34.392 19.4009 34.8587 19.4475 34.9263H19.4409Z" fill="#264459"/>
<path d="M19.4409 38.9101C19.6075 39.1063 19.3742 41.2706 19.4608 41.7644C19.3942 41.8388 18.0147 41.5885 17.9614 41.5209C17.7948 41.3248 18.0281 39.1604 17.9414 38.6666C18.0081 38.5922 19.3875 38.8425 19.4409 38.9101ZM19.2476 40.2155C18.7944 39.7556 17.9214 40.6349 18.3746 41.1016C18.8278 41.5682 19.7008 40.6822 19.2476 40.2155Z" fill="#324E5F"/>
<path d="M20.9936 34.0132C21.0336 34.2702 20.9803 34.6152 20.9936 34.8993L20.7803 35.0075L20.9936 35.1157C21.0336 36.4414 20.9669 37.7738 20.9936 39.0995C20.8936 39.113 20.9403 39.6203 20.5604 38.8763V36.6646L20.7737 36.5564L20.5604 36.4481V34.0132C20.6271 34.0538 20.867 33.9862 20.9936 34.0132Z" fill="#264459"/>
<path d="M20.5604 38.8831C20.9403 39.6271 20.9003 39.1198 20.9936 39.1063C21.4201 39.0521 21.5934 39.1739 21.4334 39.6609C21.3868 39.8097 21.0003 39.7488 20.9936 39.7691H20.5604V38.8831Z" fill="#31556B"/>
<path d="M20.5604 41.5412C20.5604 41.318 20.5604 41.1015 20.5604 40.8783C20.887 40.9122 20.887 41.5141 20.5604 41.5412Z" fill="#31556B"/>
<path d="M20.5604 43.7597C20.5604 43.6109 20.5604 43.4621 20.5604 43.32L20.7803 43.435L20.5604 43.7664V43.7597Z" fill="#31556B"/>
<path d="M20.5604 36.6713V36.4481L20.7737 36.5631L20.5604 36.6713Z" fill="#31556B"/>
<path d="M18.3746 31.8015C18.2747 31.0372 18.6678 31.4633 19.0344 31.4701C20.2339 31.4971 21.3201 31.558 20.9869 29.955C20.9536 29.7791 20.3005 29.7724 20.5538 29.1434H21.4268C21.4134 30.1309 21.1802 30.3946 22.2998 30.2526C22.2864 31.9232 22.5263 34.3717 22.3131 35.9138C22.2065 36.6646 21.6267 37.0704 21.8733 38.0782C21.9199 38.2608 22.2665 38.1391 22.3198 38.5449C22.5197 40.114 22.1332 42.1364 22.3064 43.7664H20.9936C20.9803 43.1848 20.8936 39.9517 20.9936 39.7759C21.0069 39.7556 21.3868 39.8164 21.4334 39.6676C21.5934 39.1807 21.4201 39.0589 20.9936 39.113C20.9669 37.7873 21.0336 36.4481 20.9936 35.1292C20.9936 35.0548 20.9936 34.9804 20.9936 34.906C20.9803 34.6219 21.0336 34.277 20.9936 34.02C20.9536 33.763 20.5271 33.1272 20.3405 33.0325C20.1473 32.9378 19.894 33.1407 19.8274 33.1069C19.6475 33.0257 19.7074 32.7687 19.5142 32.6943C19.3076 32.6131 18.8811 32.7484 18.8078 32.6875C18.5879 32.4846 19.2609 31.8556 18.3679 31.8015H18.3746Z" fill="#1F4F6A"/>
<path d="M27.1046 18.5108C26.4848 18.9167 25.8517 19.1669 25.0654 18.9572C24.8188 18.8896 25.0987 18.3959 24.5989 18.5108C24.399 18.5582 24.5722 18.9031 24.3456 18.9572C23.506 19.1737 22.7729 19.0181 22.3064 18.2876C22.2398 17.6248 22.1998 15.0073 22.5063 14.615C22.8529 14.1753 26.1649 14.1618 26.6714 14.4121C27.2845 14.7164 27.2179 17.7736 27.1046 18.5108Z" fill="#1B435B"/>
<path d="M22.3064 18.2876C22.7729 19.0181 23.506 19.1737 24.3456 18.9573C24.5722 18.9031 24.3923 18.5514 24.5989 18.5108C25.0987 18.4026 24.8188 18.8964 25.0654 18.9573C25.8517 19.1669 26.4848 18.9167 27.1046 18.5108C27.0846 18.6529 27.1046 18.8423 27.0113 18.9573C26.758 19.2616 23.6659 19.2549 23.0595 19.1805C22.2598 19.079 22.3797 18.9911 22.3064 18.2809V18.2876Z" fill="#2F424C"/>
<path d="M34.4551 25.6195C35.3614 25.3895 35.7812 26.8775 34.8083 27.121C33.902 27.351 33.4821 25.863 34.4551 25.6195Z" fill="#324E5F"/>
<path d="M14.0096 21.169C12.5702 21.5342 12.6901 19.7554 13.6831 20.0665C14.0429 20.1815 14.0496 20.8443 14.0096 21.169Z" fill="#264459"/>
<path d="M19.2476 40.2155C19.7008 40.6754 18.8344 41.5615 18.3746 41.1016C17.9148 40.6416 18.7878 39.7556 19.2476 40.2155Z" fill="#1F4F6A"/>
<path d="M20.9936 35.1224L20.7803 35.0142L20.9936 34.906C20.9936 34.9804 20.9936 35.0548 20.9936 35.1292V35.1224Z" fill="#31556B"/>
</g>
<defs>
<clipPath id="clip0_21_579">
<rect width="52" height="66" fill="white" transform="translate(0.0149994 0.790009)"/>
</clipPath>
</defs>
</svg>
