<?xml version="1.0" encoding="UTF-8" standalone="no"?>
<!DOCTYPE svg PUBLIC "-//W3C//DTD SVG 1.1//EN" "http://www.w3.org/Graphics/SVG/1.1/DTD/svg11.dtd">
<svg width="100%" height="100%" viewBox="0 0 243 67" version="1.1" xmlns="http://www.w3.org/2000/svg" xmlns:xlink="http://www.w3.org/1999/xlink" xml:space="preserve" xmlns:serif="http://www.serif.com/" style="fill-rule:evenodd;clip-rule:evenodd;stroke-linejoin:round;stroke-miterlimit:2;">
    <path d="M64.461,57.302C63.904,57.302 63.401,57.206 62.952,57.013C62.503,56.821 62.123,56.543 61.812,56.179C61.506,55.812 61.285,55.367 61.149,54.847L61.925,54.643C62.096,55.235 62.403,55.703 62.845,56.045C63.287,56.388 63.815,56.555 64.429,56.548C64.846,56.541 65.235,56.462 65.595,56.313C65.959,56.159 66.26,55.92 66.499,55.596C66.727,55.296 66.884,54.986 66.97,54.665C67.055,54.34 67.107,54.007 67.125,53.664L64.3,53.664L64.3,52.91L67.13,52.91C67.091,52.346 66.964,51.847 66.75,51.412C66.536,50.977 66.235,50.638 65.846,50.395C65.457,50.153 64.985,50.035 64.429,50.042C63.769,50.05 63.216,50.231 62.77,50.588C62.328,50.945 62.035,51.433 61.893,52.054L61.095,51.936C61.288,51.091 61.68,50.436 62.272,49.973C62.865,49.509 63.594,49.277 64.461,49.277C65.206,49.277 65.837,49.445 66.355,49.78C66.875,50.115 67.273,50.585 67.548,51.187C67.822,51.79 67.965,52.491 67.976,53.29C67.986,54.039 67.856,54.717 67.585,55.323C67.318,55.929 66.92,56.411 66.392,56.767C65.864,57.124 65.22,57.302 64.461,57.302ZM69.042,57.142L69.047,51.364L69.839,51.364L69.839,54.146L72.418,51.364L73.466,51.364L70.759,54.253L73.819,57.142L72.674,57.142L69.839,54.36L69.839,57.142L69.042,57.142ZM76.664,57.302C76.089,57.302 75.599,57.172 75.192,56.912C74.786,56.651 74.474,56.291 74.256,55.831C74.039,55.371 73.93,54.843 73.93,54.248C73.93,53.641 74.04,53.11 74.261,52.653C74.483,52.197 74.796,51.842 75.203,51.589C75.613,51.332 76.1,51.203 76.664,51.203C77.241,51.203 77.734,51.334 78.14,51.594C78.55,51.851 78.862,52.209 79.076,52.669C79.294,53.126 79.403,53.652 79.403,54.248C79.403,54.854 79.294,55.387 79.076,55.847C78.859,56.304 78.545,56.66 78.135,56.917C77.725,57.174 77.234,57.302 76.664,57.302ZM76.664,56.548C77.306,56.548 77.784,56.336 78.097,55.911C78.411,55.483 78.568,54.929 78.568,54.248C78.568,53.548 78.409,52.992 78.092,52.578C77.778,52.164 77.302,51.958 76.664,51.958C76.232,51.958 75.875,52.056 75.594,52.252C75.315,52.445 75.107,52.714 74.968,53.06C74.832,53.402 74.764,53.798 74.764,54.248C74.764,54.943 74.925,55.501 75.246,55.922C75.567,56.339 76.039,56.548 76.664,56.548ZM82.98,57.302C82.398,57.302 81.906,57.172 81.503,56.912C81.1,56.651 80.793,56.293 80.583,55.836C80.376,55.376 80.269,54.849 80.262,54.253C80.269,53.647 80.38,53.115 80.594,52.658C80.808,52.198 81.116,51.842 81.519,51.589C81.922,51.332 82.411,51.203 82.985,51.203C83.57,51.203 84.078,51.346 84.51,51.631C84.945,51.917 85.243,52.307 85.403,52.803L84.633,53.049C84.497,52.703 84.282,52.436 83.986,52.247C83.693,52.054 83.358,51.958 82.98,51.958C82.555,51.958 82.204,52.056 81.926,52.252C81.648,52.445 81.441,52.714 81.305,53.06C81.17,53.406 81.1,53.803 81.097,54.253C81.104,54.945 81.264,55.501 81.578,55.922C81.892,56.339 82.359,56.548 82.98,56.548C83.372,56.548 83.706,56.459 83.98,56.281C84.259,56.099 84.469,55.835 84.612,55.489L85.403,55.724C85.189,56.238 84.876,56.63 84.462,56.901C84.048,57.169 83.554,57.302 82.98,57.302ZM91.098,51.364L91.098,57.142L90.333,57.142L90.333,52.643L87.166,57.142L86.502,57.142L86.502,51.364L87.267,51.364L87.267,55.826L90.44,51.364L91.098,51.364ZM94.997,57.302C94.415,57.302 93.923,57.172 93.52,56.912C93.117,56.651 92.81,56.293 92.6,55.836C92.393,55.376 92.286,54.849 92.279,54.253C92.286,53.647 92.396,53.115 92.61,52.658C92.824,52.198 93.133,51.842 93.536,51.589C93.939,51.332 94.428,51.203 95.002,51.203C95.587,51.203 96.095,51.346 96.527,51.631C96.962,51.917 97.26,52.307 97.42,52.803L96.65,53.049C96.514,52.703 96.298,52.436 96.002,52.247C95.71,52.054 95.375,51.958 94.997,51.958C94.572,51.958 94.221,52.056 93.943,52.252C93.664,52.445 93.458,52.714 93.322,53.06C93.186,53.406 93.117,53.803 93.113,54.253C93.12,54.945 93.281,55.501 93.595,55.922C93.909,56.339 94.376,56.548 94.997,56.548C95.389,56.548 95.722,56.459 95.997,56.281C96.275,56.099 96.486,55.835 96.628,55.489L97.42,55.724C97.206,56.238 96.892,56.63 96.479,56.901C96.065,57.169 95.571,57.302 94.997,57.302ZM99.946,57.142L99.946,52.091L97.897,52.091L97.897,51.364L102.781,51.364L102.781,52.091L100.732,52.091L100.732,57.142L99.946,57.142ZM106.246,57.302C105.683,57.302 105.194,57.178 104.78,56.928C104.37,56.678 104.051,56.327 103.823,55.874C103.594,55.421 103.48,54.89 103.48,54.28C103.48,53.648 103.593,53.103 103.817,52.643C104.042,52.182 104.358,51.828 104.764,51.578C105.175,51.328 105.658,51.203 106.214,51.203C106.785,51.203 107.272,51.335 107.675,51.599C108.078,51.86 108.383,52.234 108.59,52.723C108.797,53.211 108.891,53.795 108.873,54.472L108.071,54.472L108.071,54.194C108.056,53.445 107.894,52.88 107.584,52.498C107.277,52.116 106.828,51.926 106.236,51.926C105.615,51.926 105.139,52.127 104.807,52.53C104.479,52.933 104.315,53.507 104.315,54.253C104.315,54.98 104.479,55.546 104.807,55.949C105.139,56.348 105.608,56.548 106.214,56.548C106.628,56.548 106.988,56.454 107.295,56.264C107.605,56.072 107.85,55.795 108.028,55.435L108.761,55.719C108.533,56.222 108.196,56.612 107.75,56.89C107.307,57.165 106.806,57.302 106.246,57.302ZM104.037,54.472L104.037,53.814L108.451,53.814L108.451,54.472L104.037,54.472ZM109.898,57.142L109.898,51.364L110.599,51.364L112.852,56.093L115.109,51.364L115.805,51.364L115.805,57.142L115.045,57.142L115.045,53.044L113.103,57.142L112.606,57.142L110.663,53.044L110.663,57.142L109.898,57.142ZM118.955,57.302C118.52,57.302 118.154,57.224 117.858,57.067C117.566,56.91 117.346,56.701 117.2,56.441C117.054,56.181 116.981,55.897 116.981,55.59C116.981,55.277 117.043,55.009 117.168,54.788C117.297,54.563 117.47,54.379 117.687,54.237C117.908,54.094 118.163,53.985 118.452,53.91C118.745,53.839 119.067,53.777 119.421,53.723C119.777,53.666 120.125,53.618 120.464,53.579C120.806,53.536 121.106,53.495 121.363,53.456L121.084,53.627C121.095,53.056 120.985,52.634 120.753,52.359C120.521,52.084 120.118,51.947 119.544,51.947C119.148,51.947 118.812,52.036 118.538,52.214C118.267,52.393 118.076,52.675 117.965,53.06L117.2,52.835C117.332,52.318 117.598,51.917 117.997,51.631C118.397,51.346 118.916,51.203 119.554,51.203C120.082,51.203 120.53,51.303 120.897,51.503C121.268,51.699 121.53,51.984 121.684,52.359C121.755,52.527 121.801,52.714 121.823,52.921C121.844,53.128 121.855,53.338 121.855,53.552L121.855,57.142L121.154,57.142L121.154,55.692L121.357,55.778C121.161,56.273 120.856,56.651 120.442,56.912C120.029,57.172 119.533,57.302 118.955,57.302ZM119.046,56.623C119.413,56.623 119.734,56.557 120.009,56.425C120.284,56.293 120.505,56.113 120.672,55.885C120.84,55.653 120.949,55.392 120.999,55.103C121.042,54.918 121.065,54.715 121.068,54.494C121.072,54.269 121.074,54.101 121.074,53.991L121.373,54.146C121.106,54.182 120.815,54.217 120.501,54.253C120.191,54.289 119.884,54.33 119.581,54.376C119.281,54.422 119.01,54.478 118.768,54.542C118.604,54.588 118.445,54.654 118.292,54.74C118.138,54.822 118.012,54.932 117.912,55.071C117.815,55.211 117.767,55.384 117.767,55.59C117.767,55.758 117.808,55.92 117.89,56.077C117.976,56.234 118.112,56.364 118.297,56.468C118.486,56.571 118.736,56.623 119.046,56.623ZM129.98,51.364L129.98,57.142L129.215,57.142L129.215,52.643L126.048,57.142L125.384,57.142L125.384,51.364L126.149,51.364L126.149,55.826L129.322,51.364L129.98,51.364ZM131.476,57.142L131.476,51.364L132.263,51.364L132.263,53.873L135.521,53.873L135.521,51.364L136.307,51.364L136.307,57.142L135.521,57.142L135.521,54.627L132.263,54.627L132.263,57.142L131.476,57.142ZM140.2,57.302C139.619,57.302 139.127,57.172 138.724,56.912C138.321,56.651 138.014,56.293 137.803,55.836C137.597,55.376 137.49,54.849 137.482,54.253C137.49,53.647 137.6,53.115 137.814,52.658C138.028,52.198 138.337,51.842 138.74,51.589C139.143,51.332 139.631,51.203 140.206,51.203C140.791,51.203 141.299,51.346 141.73,51.631C142.166,51.917 142.463,52.307 142.624,52.803L141.853,53.049C141.718,52.703 141.502,52.436 141.206,52.247C140.914,52.054 140.578,51.958 140.2,51.958C139.776,51.958 139.425,52.056 139.146,52.252C138.868,52.445 138.661,52.714 138.526,53.06C138.39,53.406 138.321,53.803 138.317,54.253C138.324,54.945 138.485,55.501 138.799,55.922C139.112,56.339 139.58,56.548 140.2,56.548C140.593,56.548 140.926,56.459 141.201,56.281C141.479,56.099 141.689,55.835 141.832,55.489L142.624,55.724C142.41,56.238 142.096,56.63 141.682,56.901C141.268,57.169 140.775,57.302 140.2,57.302ZM145.149,57.142L145.149,52.091L143.1,52.091L143.1,51.364L147.985,51.364L147.985,52.091L145.936,52.091L145.936,57.142L145.149,57.142ZM151.6,57.302C151.068,57.302 150.619,57.169 150.252,56.901C149.884,56.63 149.606,56.264 149.417,55.804C149.228,55.341 149.134,54.822 149.134,54.248C149.134,53.663 149.228,53.142 149.417,52.685C149.61,52.225 149.891,51.863 150.262,51.599C150.633,51.335 151.09,51.203 151.632,51.203C152.16,51.203 152.613,51.337 152.991,51.605C153.369,51.872 153.658,52.236 153.858,52.696C154.061,53.156 154.163,53.673 154.163,54.248C154.163,54.825 154.061,55.344 153.858,55.804C153.654,56.264 153.362,56.63 152.98,56.901C152.599,57.169 152.138,57.302 151.6,57.302ZM149,59.71L149,51.364L149.706,51.364L149.706,55.713L149.792,55.713L149.792,59.71L149,59.71ZM151.52,56.569C151.923,56.569 152.258,56.468 152.525,56.264C152.793,56.061 152.993,55.785 153.125,55.435C153.26,55.082 153.328,54.686 153.328,54.248C153.328,53.812 153.262,53.42 153.13,53.071C152.998,52.721 152.797,52.445 152.525,52.241C152.258,52.038 151.917,51.936 151.504,51.936C151.101,51.936 150.765,52.034 150.498,52.231C150.234,52.427 150.036,52.7 149.904,53.049C149.772,53.395 149.706,53.795 149.706,54.248C149.706,54.693 149.772,55.093 149.904,55.446C150.036,55.795 150.236,56.07 150.503,56.27C150.771,56.469 151.109,56.569 151.52,56.569ZM155.952,59.71L157.07,56.676L157.087,57.575L154.556,51.364L155.391,51.364L157.466,56.559L157.124,56.559L159.039,51.364L159.842,51.364L156.739,59.71L155.952,59.71ZM160.766,57.142L160.766,51.364L161.467,51.364L163.719,56.093L165.977,51.364L166.672,51.364L166.672,57.142L165.912,57.142L165.912,53.044L163.97,57.142L163.473,57.142L161.531,53.044L161.531,57.142L160.766,57.142ZM170.614,57.302C170.051,57.302 169.562,57.178 169.148,56.928C168.738,56.678 168.419,56.327 168.191,55.874C167.962,55.421 167.848,54.89 167.848,54.28C167.848,53.648 167.961,53.103 168.185,52.643C168.41,52.182 168.726,51.828 169.132,51.578C169.542,51.328 170.026,51.203 170.582,51.203C171.153,51.203 171.64,51.335 172.043,51.599C172.446,51.86 172.751,52.234 172.957,52.723C173.164,53.211 173.259,53.795 173.241,54.472L172.439,54.472L172.439,54.194C172.424,53.445 172.262,52.88 171.952,52.498C171.645,52.116 171.196,51.926 170.603,51.926C169.983,51.926 169.507,52.127 169.175,52.53C168.847,52.933 168.683,53.507 168.683,54.253C168.683,54.98 168.847,55.546 169.175,55.949C169.507,56.348 169.976,56.548 170.582,56.548C170.996,56.548 171.356,56.454 171.663,56.264C171.973,56.072 172.217,55.795 172.396,55.435L173.129,55.719C172.9,56.222 172.563,56.612 172.118,56.89C171.675,57.165 171.174,57.302 170.614,57.302ZM168.405,54.472L168.405,53.814L172.818,53.814L172.818,54.472L168.405,54.472ZM174.423,57.142L174.423,51.364L175.209,51.364L175.209,53.873L178.468,53.873L178.468,51.364L179.254,51.364L179.254,57.142L178.468,57.142L178.468,54.627L175.209,54.627L175.209,57.142L174.423,57.142ZM182.318,57.142L182.318,52.091L180.269,52.091L180.269,51.364L185.153,51.364L185.153,52.091L183.104,52.091L183.104,57.142L182.318,57.142ZM188.482,57.302C187.907,57.302 187.417,57.172 187.01,56.912C186.604,56.651 186.292,56.291 186.074,55.831C185.857,55.371 185.748,54.843 185.748,54.248C185.748,53.641 185.858,53.11 186.08,52.653C186.301,52.197 186.615,51.842 187.021,51.589C187.431,51.332 187.918,51.203 188.482,51.203C189.06,51.203 189.552,51.334 189.958,51.594C190.369,51.851 190.681,52.209 190.895,52.669C191.112,53.126 191.221,53.652 191.221,54.248C191.221,54.854 191.112,55.387 190.895,55.847C190.677,56.304 190.363,56.66 189.953,56.917C189.543,57.174 189.052,57.302 188.482,57.302ZM188.482,56.548C189.124,56.548 189.602,56.336 189.916,55.911C190.229,55.483 190.386,54.929 190.386,54.248C190.386,53.548 190.228,52.992 189.91,52.578C189.596,52.164 189.12,51.958 188.482,51.958C188.05,51.958 187.693,52.056 187.412,52.252C187.134,52.445 186.925,52.714 186.786,53.06C186.65,53.402 186.582,53.798 186.582,54.248C186.582,54.943 186.743,55.501 187.064,55.922C187.385,56.339 187.858,56.548 188.482,56.548ZM192.396,57.142L192.396,51.364L194.777,51.364C194.898,51.364 195.044,51.371 195.215,51.385C195.39,51.4 195.552,51.426 195.702,51.465C196.027,51.551 196.287,51.726 196.483,51.99C196.683,52.254 196.783,52.571 196.783,52.942C196.783,53.149 196.751,53.334 196.687,53.499C196.626,53.659 196.539,53.798 196.424,53.916C196.371,53.976 196.312,54.03 196.248,54.076C196.184,54.119 196.121,54.155 196.061,54.183C196.175,54.205 196.298,54.255 196.43,54.333C196.637,54.454 196.794,54.618 196.901,54.825C197.008,55.029 197.061,55.277 197.061,55.569C197.061,55.965 196.967,56.288 196.777,56.537C196.588,56.787 196.335,56.958 196.018,57.051C195.875,57.09 195.72,57.115 195.552,57.126C195.388,57.137 195.233,57.142 195.087,57.142L192.396,57.142ZM193.188,56.473L195.049,56.473C195.124,56.473 195.219,56.468 195.333,56.457C195.447,56.443 195.549,56.425 195.638,56.404C195.848,56.35 196.002,56.243 196.098,56.083C196.198,55.919 196.248,55.74 196.248,55.548C196.248,55.294 196.173,55.087 196.023,54.927C195.877,54.763 195.681,54.663 195.435,54.627C195.353,54.609 195.267,54.599 195.178,54.595C195.089,54.592 195.008,54.59 194.937,54.59L193.188,54.59L193.188,56.473ZM193.188,53.916L194.803,53.916C194.896,53.916 194.999,53.91 195.114,53.9C195.231,53.885 195.333,53.862 195.419,53.83C195.604,53.766 195.74,53.655 195.825,53.499C195.914,53.342 195.959,53.17 195.959,52.985C195.959,52.782 195.911,52.603 195.814,52.45C195.722,52.297 195.581,52.19 195.392,52.129C195.263,52.083 195.124,52.056 194.975,52.049C194.828,52.042 194.736,52.038 194.696,52.038L193.188,52.038L193.188,53.916ZM199.841,58.426L199.841,56.468C200.17,56.468 200.405,56.362 200.548,56.152C200.69,55.938 200.806,55.597 200.895,55.13C200.956,54.827 201.006,54.501 201.045,54.151C201.084,53.802 201.118,53.402 201.147,52.953C201.175,52.5 201.202,51.97 201.227,51.364L205.047,51.364L205.047,56.468L205.603,56.468L205.603,58.426L204.844,58.426L204.844,57.142L200.596,57.142L200.596,58.426L199.841,58.426ZM201.174,56.468L204.266,56.468L204.266,52.038L201.955,52.038C201.944,52.309 201.928,52.596 201.907,52.899C201.889,53.202 201.866,53.506 201.837,53.809C201.812,54.112 201.782,54.397 201.746,54.665C201.714,54.929 201.675,55.161 201.628,55.36C201.575,55.617 201.516,55.836 201.452,56.018C201.391,56.2 201.298,56.35 201.174,56.468ZM206.14,57.142L206.14,56.452C206.354,56.491 206.516,56.482 206.627,56.425C206.741,56.364 206.825,56.264 206.878,56.125C206.932,55.983 206.976,55.806 207.012,55.596C207.069,55.246 207.121,54.861 207.167,54.44C207.213,54.019 207.254,53.556 207.29,53.049C207.329,52.539 207.369,51.977 207.408,51.364L211.335,51.364L211.335,57.142L210.554,57.142L210.554,52.118L208.135,52.118C208.11,52.496 208.082,52.873 208.05,53.247C208.018,53.622 207.984,53.982 207.948,54.328C207.916,54.67 207.88,54.986 207.841,55.275C207.802,55.564 207.761,55.813 207.718,56.024C207.654,56.341 207.568,56.594 207.461,56.783C207.358,56.972 207.203,57.097 206.996,57.158C206.789,57.219 206.504,57.213 206.14,57.142ZM216.452,57.142L216.452,54.964L215.103,54.964C214.946,54.964 214.784,54.959 214.616,54.948C214.452,54.934 214.299,54.914 214.156,54.89C213.75,54.811 213.404,54.633 213.118,54.355C212.837,54.073 212.696,53.684 212.696,53.188C212.696,52.703 212.828,52.314 213.092,52.022C213.356,51.726 213.675,51.533 214.049,51.444C214.221,51.405 214.394,51.382 214.568,51.375C214.747,51.367 214.9,51.364 215.028,51.364L217.238,51.364L217.243,57.142L216.452,57.142ZM212.509,57.142L214.119,54.718L214.991,54.718L213.37,57.142L212.509,57.142ZM215.061,54.29L216.452,54.29L216.452,52.038L215.061,52.038C214.975,52.038 214.855,52.042 214.702,52.049C214.549,52.056 214.404,52.079 214.269,52.118C214.151,52.154 214.033,52.216 213.916,52.305C213.801,52.391 213.705,52.507 213.627,52.653C213.548,52.796 213.509,52.971 213.509,53.178C213.509,53.466 213.587,53.698 213.744,53.873C213.905,54.044 214.105,54.162 214.344,54.226C214.472,54.255 214.6,54.272 214.729,54.28C214.857,54.287 214.968,54.29 215.061,54.29ZM220.244,57.142L223.657,53.156L220.538,49.438L221.528,49.438L224.508,53.038L224.508,49.438L225.294,49.438L225.294,53.038L228.274,49.438L229.264,49.438L226.145,53.156L229.558,57.142L228.553,57.142L225.294,53.327L225.294,57.142L224.508,57.142L224.508,53.327L221.255,57.142L220.244,57.142ZM230.416,57.142L230.416,49.438L231.202,49.438L231.202,53.076L234.717,49.438L235.723,49.438L232.133,53.156L236.017,57.142L234.99,57.142L231.202,53.29L231.202,57.142L230.416,57.142ZM236.127,57.142L238.797,53.242L236.196,49.438L237.149,49.438L239.262,52.584L241.375,49.438L242.333,49.438L239.733,53.242L242.397,57.142L241.445,57.142L239.262,53.905L237.085,57.142L236.127,57.142Z" style="fill:rgb(38,40,51);fill-opacity:0.8;fill-rule:nonzero;"/>
    <path d="M102.92,29.431L102.92,22.465C102.92,18.41 103.817,15.431 105.612,13.526C107.406,11.622 109.797,10.67 112.783,10.67C115.797,10.67 118.201,11.622 119.996,13.526C121.79,15.431 122.688,18.41 122.688,22.465L122.688,29.431C122.688,33.486 121.784,36.5 119.975,38.472C118.167,40.432 115.77,41.411 112.783,41.411C109.824,41.411 107.441,40.432 105.632,38.472C103.824,36.5 102.92,33.486 102.92,29.431ZM137.176,17.96L137.176,20.785L137.597,20.785C140.126,20.785 142.025,21.513 143.295,22.97C144.565,24.417 145.2,26.587 145.2,29.48C145.2,32.383 144.565,34.558 143.295,36.005C142.036,37.441 140.121,38.164 137.551,38.175L137.176,38.175L137.176,41.312L132.29,41.312L132.29,38.175L131.9,38.175C129.34,38.175 127.425,37.451 126.155,36.005C124.886,34.558 124.251,32.383 124.251,29.48C124.251,26.576 124.891,24.401 126.171,22.955C127.461,21.508 129.361,20.785 131.869,20.785L132.29,20.785L132.29,17.96L137.176,17.96ZM62.254,41L62.254,11.081L80.583,11.081L80.583,41L74.069,41L74.069,16.691L68.768,16.691L68.768,41L62.254,41ZM83.584,41L83.584,11.081L93.509,11.081C96.111,11.081 98.084,11.93 99.427,13.629C100.769,15.328 101.44,17.896 101.44,21.335C101.44,24.76 100.749,27.321 99.365,29.02C97.981,30.719 95.981,31.568 93.365,31.568L90.097,31.568L90.097,41L83.584,41ZM161.122,41L156.251,41L156.236,29.293C156.236,28.907 156.241,28.512 156.251,28.106C156.272,27.69 156.288,27.331 156.298,27.029L156.205,27.029C156.142,27.32 156.064,27.659 155.97,28.044C155.877,28.418 155.752,28.798 155.596,29.183L152.333,41L146.839,41L146.839,18.272L151.709,18.272L151.709,29.917C151.709,30.24 151.704,30.625 151.693,31.072C151.683,31.52 151.672,31.879 151.662,32.149L151.756,32.149C151.839,31.775 151.927,31.41 152.021,31.056C152.115,30.703 152.234,30.354 152.38,30.011L155.627,18.272L161.122,18.272L161.122,41ZM176.226,25.181L171.282,11.081L177.981,11.081L182.05,22.732L183.057,22.732L183.057,11.081L189.468,11.081L189.468,22.732L190.475,22.732L194.543,11.081L201.181,11.081L196.302,24.947L201.982,41L194.831,41L190.563,28.486L189.468,28.486L189.468,41L183.057,41L183.057,28.486L181.998,28.486L177.693,41L170.604,41L176.226,25.181ZM210.915,28.486L209.585,28.486L209.585,41L203.071,41L203.071,11.081L209.585,11.081L209.585,22.712L210.695,22.712L215.298,11.081L222.017,11.081L216.432,24.295L222.493,40.15L228.816,25.74L222.531,11.081L229.497,11.081L232.797,19.065L236.052,11.081L242.073,11.081L235.834,25.534L242.257,41L235.271,41L231.837,32.346L228.305,41L215.565,41L210.915,28.486ZM109.721,31.281C109.721,33.185 109.989,34.52 110.523,35.288C111.071,36.055 111.831,36.438 112.804,36.438C113.763,36.438 114.516,36.055 115.064,35.288C115.626,34.52 115.907,33.185 115.907,31.281L115.907,20.821C115.907,18.985 115.633,17.684 115.085,16.917C114.537,16.136 113.776,15.746 112.804,15.746C111.831,15.746 111.071,16.136 110.523,16.917C109.989,17.684 109.721,18.985 109.721,20.821L109.721,31.281ZM137.426,24.313L137.16,24.313L137.16,34.756L137.426,34.756C138.362,34.756 139.028,34.361 139.424,33.57C139.819,32.768 140.017,31.415 140.017,29.511C140.017,27.461 139.819,26.082 139.424,25.374C139.028,24.667 138.362,24.313 137.426,24.313ZM132.04,24.313C131.114,24.313 130.448,24.662 130.042,25.359C129.647,26.056 129.449,27.43 129.449,29.48C129.449,31.551 129.647,32.95 130.042,33.679C130.448,34.397 131.114,34.756 132.04,34.756L132.306,34.756L132.306,24.313L132.04,24.313ZM90.097,26.719L92.317,26.719C93.289,26.719 93.974,26.363 94.372,25.65C94.769,24.938 94.968,23.54 94.968,21.458C94.968,19.513 94.776,18.157 94.392,17.39C94.009,16.609 93.31,16.225 92.296,16.239L90.097,16.239L90.097,26.719Z" style="fill:rgb(38,40,51);fill-rule:nonzero;"/>
    <g>
        <path d="M14.016,5.937L26.009,7.824L38.528,17.324L40.331,30.873L34.626,43.376L27.614,49.277L13.785,49.277L12.77,41.411L5.612,31.553L5.125,27.244L2.533,26.041L1.517,24.788L3.115,21.624L7.948,11.265L14.016,5.937Z" style="fill:rgb(253,185,51);"/>
        <path d="M22.955,0.84C22.956,0.824 22.957,0.809 22.959,0.797C23.319,0.79 23.686,0.797 24.052,0.797L24.052,0.79C24.053,0.792 24.053,0.794 24.053,0.797C25.147,0.817 26.307,0.69 27.31,1.228C27.315,1.229 27.32,1.229 27.325,1.23C35.628,1.92 42.319,10.841 43.745,18.673C45.971,20.033 49.623,20.905 51.548,22.488C51.549,22.492 51.549,22.495 51.55,22.499C51.618,22.521 51.925,22.384 51.988,22.63C52.122,23.171 51.762,24.044 51.215,24.044L42.159,24.044C42.172,24.93 42.699,25.917 42.592,26.79C42.493,27.586 41.514,28.157 41.712,29.105C41.718,29.114 41.723,29.122 41.726,29.13C42.519,31.335 44.918,33.607 45.538,35.339C45.691,35.765 45.711,36.84 45.558,37.226C45.111,38.335 42.872,37.855 42.625,38.572C42.285,39.559 43.105,40.493 43.039,41.196C42.978,41.764 42.292,41.954 42.192,42.353C42.092,42.772 42.532,43.361 42.339,44.03C42.205,44.497 41.452,44.781 41.326,45.234C41.139,45.904 41.659,46.878 41.726,47.622C42.079,51.639 38.78,51.673 35.728,51.491C34.595,51.423 31.743,50.483 31.07,51.639C30.21,55.19 28.677,59.174 29.09,62.874C29.23,64.152 29.977,65.437 29.83,66.777C23.413,63.185 17.382,58.457 10.251,56.306C8.645,55.819 7.019,55.63 5.406,55.244C5.16,55.184 4.993,55.163 4.846,54.92C6.872,50.929 9.811,46.316 9.438,41.629C9.245,39.187 7.665,37.909 6.506,35.975C5.153,33.722 4.613,32.329 3.98,29.793C3.963,29.753 3.949,29.715 3.939,29.681C3.949,29.725 3.958,29.765 3.967,29.799C3.918,29.684 3.901,29.591 3.905,29.515C3.775,28.852 3.595,27.657 3.527,27.588C3.347,27.398 1.354,28.075 0.468,26.817C-0.292,25.735 -0.138,23.692 1.048,22.961C1.894,22.441 1.921,23.124 2.221,21.602L2.227,21.615C2.227,21.676 2.541,18.538 2.921,17.111C4.5,11.125 7.865,6.235 13.383,3.367C15.229,2.407 18.161,1.338 19.901,1.236C20.421,1.203 22.833,1.331 22.959,1.236C22.963,1.233 22.966,1.226 22.968,1.216C22.966,1.223 22.963,1.227 22.959,1.23C22.84,1.324 20.421,1.196 19.901,1.23C20.827,0.783 21.967,0.824 22.959,0.79C22.957,0.804 22.956,0.821 22.955,0.84ZM16.415,31.805L16.415,46.418C16.342,46.418 16.335,46.425 16.409,46.425C16.555,47.047 16.561,47.038 16.415,46.418C16.913,46.377 17.431,46.444 17.935,46.418C17.954,46.055 17.928,45.685 17.935,45.315C19.921,45.065 18.854,45.694 19.461,46.425C19.694,46.702 19.701,46.695 19.468,46.418L20.555,46.418C20.586,46.142 20.547,45.827 20.554,45.539L20.561,45.51C20.567,45.22 20.56,44.936 20.56,44.646L20.67,44.646L20.56,44.639L20.56,43.32L20.774,43.432L20.78,43.422L20.56,43.307L20.56,40.878C20.582,40.881 20.603,40.885 20.624,40.893C20.638,40.899 20.653,40.906 20.666,40.914C20.675,40.92 20.684,40.927 20.692,40.934C20.698,40.938 20.703,40.943 20.708,40.949C20.748,40.988 20.774,41.039 20.789,41.092L20.802,41.157L20.805,41.206C20.807,41.046 20.726,40.885 20.56,40.872L20.56,38.883C20.94,39.627 20.94,39.62 20.56,38.876L20.56,36.448L20.767,36.56L20.774,36.556L20.56,36.448L20.56,34.016C19.996,33.658 19.465,33.173 18.794,32.83C18.401,32.627 16.682,31.781 16.422,31.808L16.415,31.805ZM28.843,46.418L28.844,46.208C29.149,46.264 29.142,46.249 28.851,46.195C28.937,42.445 28.851,38.661 28.851,34.912C28.848,34.912 28.846,34.912 28.844,34.913L28.844,34.473C29.29,34.291 29.71,34.291 30.15,34.473L30.15,34.696C30.157,34.92 30.163,34.906 30.157,34.69C30.529,35.027 31.554,35.264 31.901,34.914L31.903,34.912C32.149,34.661 31.943,33.797 32.029,33.574C32.148,33.271 32.721,32.929 32.99,32.699C32.99,32.698 32.989,32.696 32.989,32.694L32.996,32.688C33.118,32.573 33.199,32.226 33.409,32.146C33.662,32.045 34.035,32.356 34.508,32.146C35.708,31.619 35.215,29.603 33.582,30.07C32.789,30.3 33.136,31.294 32.782,31.93C32.722,32.045 31.789,32.951 31.67,33.012C31.583,33.053 30.23,33.56 30.15,33.574C30.091,33.587 30.101,33.587 30.163,33.574L30.163,34.46C29.717,34.277 29.297,34.277 28.857,34.46L28.857,28.259C28.847,28.26 28.84,28.26 28.837,28.257C28.791,28.196 28.811,27.926 28.611,27.723C26.858,25.964 24.352,24.571 22.62,22.725C22.572,22.719 22.556,22.878 22.526,22.928L22.526,22.927L22.746,46.404L22.741,46.416C22.854,46.386 23.029,46.431 23.166,46.418L23.181,46.418C23.252,46.411 23.322,46.417 23.393,46.418C23.613,46.404 23.833,46.418 24.046,46.418C24.6,46.604 24.605,46.604 24.052,46.418C25.359,46.384 26.678,46.418 27.978,46.418L28.843,46.418ZM17.941,45.309C17.961,44.497 17.928,43.679 17.941,42.874C20.387,42.515 19.228,44.774 19.468,46.418C18.861,45.694 19.927,45.058 17.941,45.309ZM19.441,38.91C19.608,39.106 19.374,41.271 19.461,41.764C19.394,41.839 18.015,41.589 17.961,41.521C17.795,41.325 18.028,39.16 17.941,38.667C18.008,38.592 19.388,38.843 19.441,38.91ZM27.538,41.318C26.611,41.071 26.303,40.628 26.217,40.053C26.132,39.478 26.268,38.771 26.232,37.997C28.204,37.936 27.398,39.959 27.538,41.318ZM19.346,40.696C19.309,40.807 19.241,40.915 19.153,41.003C18.936,41.225 18.605,41.332 18.375,41.102L18.376,41.103C18.695,41.429 19.219,41.089 19.346,40.696ZM25.325,37.368C25.439,37.546 25.399,40.216 25.252,40.216C23.373,40.053 24.219,38.254 24.059,36.895C24.13,36.809 25.224,37.284 25.325,37.368ZM19.246,40.214C19.118,40.085 18.956,40.062 18.8,40.108C18.956,40.063 19.118,40.086 19.248,40.216L19.246,40.214ZM19.441,34.926C19.541,35.089 19.514,37.557 19.361,37.557C17.268,37.294 18.061,36.151 17.948,34.453C18.001,34.392 19.401,34.859 19.448,34.926L19.441,34.926ZM25.326,37.369C25.327,37.37 25.329,37.371 25.33,37.372C25.331,37.373 25.331,37.374 25.332,37.375L25.326,37.369ZM27.504,34.047C27.731,34.406 27.418,36.299 27.538,36.888C25.685,36.401 26.305,35.122 26.232,33.567C26.305,33.479 27.464,33.986 27.504,34.047ZM25.312,32.951C25.425,33.148 25.412,35.075 25.359,35.454C25.325,35.711 25.445,35.9 25.039,35.772C23.339,35.251 24.252,33.932 24.046,32.458C24.179,32.316 25.225,32.803 25.305,32.945L25.312,32.951ZM31.907,34.911C31.93,34.903 31.937,34.895 31.934,34.892C31.932,34.889 31.921,34.891 31.909,34.906C31.908,34.907 31.908,34.909 31.907,34.911ZM4.201,24.273C4.198,24.273 4.196,24.273 4.193,24.273C3.407,24.273 2.514,24.686 2.754,25.606C3.34,27.811 7.166,24.253 7.685,27.148L7.686,27.151C7.891,28.281 7.539,29.929 7.685,31.132C7.491,30.712 7.407,30.025 7.407,29.312C7.407,30.027 7.491,30.714 7.685,31.132C7.965,31.741 9.425,33.425 9.978,33.79C10.258,33.973 10.451,34.033 10.524,33.675C10.691,32.863 8.705,31.808 8.438,30.922C8.125,29.881 8.405,27.906 8.338,26.702C8.338,26.699 8.338,26.697 8.338,26.695C7.985,26.397 7.639,25.667 7.246,25.484C6.219,25.017 5.086,25.904 4.193,24.26L4.201,24.273ZM27.538,32.464C26.525,32.373 26.238,31.923 26.185,31.306C26.132,30.689 26.312,29.904 26.232,29.143C28.084,29.637 27.464,30.915 27.538,32.464ZM10.984,28.414C10.976,28.437 10.967,28.459 10.958,28.481C10.911,28.014 10.898,27.424 10.902,26.83C10.907,26.237 10.931,25.64 10.958,25.16L10.958,25.16C11.004,24.294 10.858,24.064 11.391,23.279C11.504,23.11 12.61,21.981 12.704,21.94C13.09,21.785 13.457,22.197 14.003,21.954C15.736,21.183 14.583,18.592 12.697,19.512C11.717,19.992 12.37,21.122 12.164,21.609C12.084,21.805 10.884,22.968 10.658,22.927C9.645,22.38 9.645,21.595 9.258,20.79C8.432,19.086 6.446,20.696 7.445,21.967C7.805,22.42 8.492,22.177 8.992,22.393C11.324,23.408 9.805,27.628 10.404,29.597C10.504,29.914 12.437,32.018 12.597,32.018C12.737,32.018 12.93,31.653 12.93,31.47C12.93,30.801 11.124,30.077 10.958,28.481C10.967,28.459 10.976,28.437 10.984,28.414ZM25.325,28.514C25.412,28.656 25.405,30.679 25.359,31.03C25.325,31.288 25.445,31.477 25.039,31.348C23.339,30.828 24.252,29.509 24.046,28.034C24.119,27.946 25.279,28.453 25.319,28.514L25.325,28.514ZM3.908,29.462C3.906,29.429 3.906,29.41 3.906,29.404C3.907,29.394 3.909,29.414 3.908,29.462ZM11.078,28.123C11.067,28.163 11.056,28.202 11.044,28.24L11.051,28.218L11.078,28.123ZM11.125,27.923C11.116,27.967 11.106,28.011 11.095,28.053L11.102,28.024L11.125,27.923ZM33.182,26.012C32.276,26.607 29.617,25.586 30.583,23.929C31.376,22.562 32.356,23.076 32.982,22.603C33.802,21.981 33.409,20.689 32.436,20.513C30.703,20.195 31.316,21.744 30.823,22.63C30.057,24.003 28.397,23.218 28.064,24.497C27.678,25.978 29.57,25.687 30.157,25.944C30.623,26.147 30.95,27.033 31.076,27.108C31.436,27.324 32.476,27.033 33.056,27.202C33.429,27.31 33.695,27.885 34.242,28.007C36.408,28.467 37.047,24.997 34.628,24.923C33.056,24.876 33.422,25.856 33.176,26.019L33.182,26.012ZM34.455,25.619C34.908,25.505 35.24,25.819 35.336,26.193C35.433,26.566 35.295,26.999 34.808,27.121C33.902,27.351 33.482,25.863 34.455,25.619ZM29.225,14.169C29.26,14.241 29.281,14.355 29.29,14.527C27.824,14.798 26.805,13.54 27.105,12.092L26.452,12.092L26.325,13.425L25.139,13.425C25.492,11.463 23.906,11.504 24.266,13.425L22.953,13.425C22.86,12.815 23.356,11.888 22.331,12.086C22.325,12.09 22.319,12.094 22.313,12.099L22.306,12.092C22.62,13.546 21.613,14.791 20.121,14.527C20.154,14.73 20.067,15.048 20.121,15.19L20.122,15.19C20.418,15.257 21.393,15.035 21.433,15.318C21.487,15.684 21.393,16.137 21.433,16.522C20.828,16.617 19.904,16.105 20.119,17.179C20.122,17.181 20.125,17.183 20.127,17.185C20.154,17.212 20.027,17.571 20.274,17.632C20.607,17.72 21.074,17.578 21.44,17.632L21.44,18.741C20.78,18.092 19.674,18.951 20.134,19.404C20.327,19.593 23.033,18.978 22.313,21.622L22.966,21.622L23.093,20.29L24.279,20.29C23.926,22.251 25.512,22.211 25.152,20.29L26.465,20.29L26.465,21.622L27.118,21.622C26.858,19.979 27.704,19.126 29.304,19.404L29.304,18.741L27.991,18.741C27.844,17.104 28.111,17.868 28.937,17.605C29.404,17.456 29.31,16.942 29.297,16.529L27.984,16.529L27.984,15.325L29.297,15.197C29.297,14.973 29.31,14.75 29.297,14.534C29.286,14.356 29.262,14.241 29.225,14.169ZM14.01,21.169C13.29,21.352 12.96,20.998 12.934,20.638C12.908,20.278 13.187,19.911 13.683,20.067C14.043,20.182 14.05,20.844 14.01,21.169ZM25.222,14.25C25.897,14.261 26.481,14.318 26.671,14.412C27.265,14.707 27.221,17.586 27.115,18.435L27.105,18.511C27.085,18.653 27.105,18.842 27.011,18.957C26.758,19.262 23.666,19.255 23.06,19.18C22.263,19.079 22.379,18.992 22.307,18.289L22.306,18.288C22.24,17.625 22.2,15.007 22.506,14.615C22.712,14.354 23.964,14.243 25.052,14.249L25.222,14.25ZM17.068,16.739C15.829,17.104 16.052,17.046 17.082,16.739L17.068,16.739C18.381,16.346 18.948,15.488 18.495,14.067C18.275,13.364 17.682,13.343 17.408,12.958C16.469,11.646 17.115,9.86 14.343,9.853C12.35,9.853 12.637,11.051 11.831,11.524C11.351,11.808 10.564,11.639 9.885,12.207C9.251,12.735 9.358,13.398 9.171,13.587C8.845,13.918 7.785,13.573 7.679,14.852C7.592,15.839 7.905,16.394 8.785,16.739L17.068,16.739ZM27.279,12.016C27.5,12.241 27.547,12.62 27.59,12.992C27.632,13.365 27.67,13.731 27.873,13.932C27.475,13.523 27.727,12.461 27.279,12.016ZM25.364,11.876C25.236,12.574 25.36,13.02 25.555,13.213C25.363,13.016 25.243,12.57 25.372,11.876L25.364,11.876ZM23.125,11.916C23.3,12.23 23.051,13.071 23.179,13.201L23.18,13.202C23.064,13.054 23.31,12.217 23.125,11.916Z" style="fill:rgb(38,40,51);fill-rule:nonzero;"/>
    </g>
</svg>
