<svg width="20" height="21" viewBox="0 0 20 21" fill="none" xmlns="http://www.w3.org/2000/svg">
<path d="M9.40009 16.3082L9.4001 16.3081L16.796 8.91229C15.7894 8.49334 14.5972 7.80518 13.4697 6.67765C12.342 5.54995 11.6537 4.35755 11.2348 3.35087L3.83882 10.7469L3.83879 10.7469C3.26166 11.324 2.97307 11.6126 2.7249 11.9308C2.43213 12.3062 2.18114 12.7123 1.97634 13.142C1.80273 13.5063 1.67368 13.8934 1.41556 14.6678L0.0544484 18.7511C-0.0725722 19.1322 0.0266047 19.5523 0.310631 19.8363C0.594658 20.1204 1.01478 20.2195 1.39584 20.0925L5.47918 18.7314C6.25351 18.4733 6.6407 18.3442 7.00498 18.1706C7.43469 17.9658 7.84082 17.7148 8.21616 17.4221C8.53435 17.1739 8.82296 16.8853 9.40009 16.3082Z" fill="#A8A9AD"/>
<path d="M18.8482 6.86003C20.3839 5.32432 20.3839 2.83446 18.8482 1.29875C17.3125 -0.236953 14.8226 -0.236953 13.2869 1.29875L12.3999 2.18579C12.4121 2.22247 12.4246 2.25966 12.4377 2.29733C12.7628 3.23447 13.3763 4.46298 14.5303 5.61699C15.6843 6.77101 16.9128 7.38446 17.85 7.70959C17.8875 7.7226 17.9245 7.73514 17.961 7.74723L18.8482 6.86003Z" fill="#A8A9AD"/>
</svg>
