<svg width="25" height="25" viewBox="0 0 25 25" fill="none" xmlns="http://www.w3.org/2000/svg">
<circle cx="12.5" cy="12.7229" r="3" stroke="#93949A" stroke-width="1.5"/>
<path d="M14.2654 2.87514C13.8978 2.7229 13.4319 2.7229 12.5 2.7229C11.5681 2.7229 11.1022 2.7229 10.7346 2.87514C10.2446 3.07813 9.85522 3.46748 9.65223 3.95753C9.55957 4.18124 9.5233 4.4414 9.50911 4.82089C9.48826 5.37858 9.20226 5.89479 8.71894 6.17383C8.23564 6.45286 7.64559 6.44244 7.15219 6.18166C6.81645 6.0042 6.57301 5.90552 6.33294 5.87392C5.80704 5.80468 5.27518 5.94719 4.85436 6.2701C4.53874 6.51228 4.30577 6.9158 3.83983 7.72283C3.37389 8.52987 3.14092 8.93338 3.08899 9.32781C3.01976 9.8537 3.16227 10.3856 3.48518 10.8064C3.63256 10.9985 3.8397 11.1599 4.16119 11.3619C4.6338 11.6589 4.93789 12.1648 4.93786 12.7229C4.93783 13.281 4.63375 13.7868 4.16118 14.0837C3.83965 14.2858 3.63248 14.4473 3.48508 14.6394C3.16217 15.0602 3.01966 15.592 3.0889 16.1179C3.14082 16.5123 3.37379 16.9159 3.83973 17.7229C4.30568 18.5299 4.53865 18.9335 4.85426 19.1756C5.27508 19.4985 5.80694 19.6411 6.33284 19.5718C6.57289 19.5402 6.81632 19.4415 7.15204 19.2641C7.64547 19.0033 8.23556 18.9929 8.7189 19.2719C9.20224 19.551 9.48826 20.0672 9.50911 20.625C9.52331 21.0044 9.55957 21.2646 9.65223 21.4883C9.85522 21.9783 10.2446 22.3677 10.7346 22.5707C11.1022 22.7229 11.5681 22.7229 12.5 22.7229C13.4319 22.7229 13.8978 22.7229 14.2654 22.5707C14.7554 22.3677 15.1448 21.9783 15.3477 21.4883C15.4404 21.2646 15.4767 21.0044 15.4909 20.6249C15.5117 20.0672 15.7977 19.551 16.281 19.2719C16.7643 18.9928 17.3544 19.0033 17.8479 19.2641C18.1836 19.4415 18.427 19.5401 18.667 19.5717C19.1929 19.641 19.7248 19.4985 20.1456 19.1756C20.4612 18.9334 20.6942 18.5299 21.1601 17.7228C21.6261 16.9158 21.8591 16.5123 21.911 16.1179C21.9802 15.592 21.8377 15.0601 21.5148 14.6393C21.3674 14.4472 21.1602 14.2857 20.8387 14.0837C20.3662 13.7868 20.0621 13.2809 20.0621 12.7228C20.0621 12.1647 20.3662 11.659 20.8387 11.3621C21.1603 11.16 21.3675 10.9986 21.5149 10.8064C21.8378 10.3856 21.9803 9.85377 21.9111 9.32787C21.8592 8.93345 21.6262 8.52994 21.1602 7.7229C20.6943 6.91587 20.4613 6.51235 20.1457 6.27017C19.7249 5.94726 19.193 5.80475 18.6671 5.87399C18.4271 5.90559 18.1837 6.00426 17.8479 6.1817C17.3545 6.44249 16.7644 6.45292 16.2811 6.17386C15.7977 5.89481 15.5117 5.37856 15.4909 4.82084C15.4767 4.44138 15.4404 4.18123 15.3477 3.95753C15.1448 3.46748 14.7554 3.07813 14.2654 2.87514Z" stroke="#93949A" stroke-width="1.5"/>
</svg>
