<svg width="23" height="18" viewBox="0 0 23 18" fill="none" xmlns="http://www.w3.org/2000/svg">
<path d="M17.1325 4.52932C16.954 4.35782 15.9282 4.89828 15.7085 5.01628C12.8713 6.54878 10.0818 9.02059 7.25357 10.4618C6.02785 11.0865 5.21016 10.7907 3.96964 10.4681C3.16347 10.2589 1.62927 9.85999 0.925101 9.52486C-0.190381 8.99463 0.57713 8.23782 1.36274 7.89718L21.2029 0.123013C22.2246 0.0160217 22.6778 0.339355 22.6433 1.34161C21.6948 6.18453 21.3435 11.398 20.2313 16.1866C19.732 18.3383 18.2578 17.8513 16.6776 16.9615C15.0257 16.0317 11.9565 14.1475 10.5951 12.9446C10.0406 12.4553 9.85554 12.003 10.3434 11.372C11.6209 10.1558 13.0054 9.03868 14.2961 7.83582C14.8497 7.32053 16.9384 5.46549 17.093 4.92503C17.1309 4.79208 17.1465 4.66699 17.1325 4.52932Z" fill="white"/>
</svg>
